<svg width="19" height="19" viewBox="0 0 19 19" fill="none" xmlns="http://www.w3.org/2000/svg">
<path d="M11.8666 10.2957L14.4199 7.74237C15.3005 6.86182 15.3005 5.43416 14.4199 4.55361C13.5394 3.67306 12.1117 3.67306 11.2312 4.55361L8.67789 7.1069L7.68232 6.11133C7.60422 6.03322 7.60422 5.90659 7.68232 5.82848L10.172 3.33878C11.6776 1.83319 14.1187 1.83319 15.6242 3.33878C17.1298 4.84436 17.1298 7.2854 15.6242 8.79099L13.1345 11.2807C13.0564 11.3588 12.9298 11.3588 12.8517 11.2807L11.8666 10.2957ZM7.12226 8.66253L4.59115 11.1936C3.7106 12.0742 3.7106 13.5018 4.59115 14.3824C5.4717 15.2629 6.89936 15.2629 7.77991 14.3824L10.311 11.8513L11.2979 12.8381C11.376 12.9162 11.376 13.0429 11.2979 13.121L8.75781 15.661C7.25123 17.1676 4.80858 17.1676 3.302 15.661C1.79542 14.1544 1.79542 11.7118 3.302 10.2052L5.84204 7.66516C5.92015 7.58706 6.04678 7.58706 6.12488 7.66516L7.12226 8.66253ZM6.91934 10.9123L10.8791 6.95251C10.9572 6.8744 11.0839 6.8744 11.162 6.95251L12.0459 7.83639C12.124 7.9145 12.124 8.04113 12.0459 8.11923L8.08606 12.079C8.00796 12.1571 7.88133 12.1571 7.80322 12.079L6.91934 11.1951C6.84123 11.117 6.84123 10.9904 6.91934 10.9123Z" fill="black"/>
</svg>
