<svg width="19" height="19" viewBox="0 0 19 19" fill="none" xmlns="http://www.w3.org/2000/svg">
<path d="M17 17H13.8934V12.1276C13.8934 10.9651 13.8722 9.47069 12.2781 9.47069C10.6604 9.47069 10.4127 10.7365 10.4127 12.0434V17H7.30623V6.98061H10.2884V8.34951H10.3297C10.7445 7.56191 11.7585 6.73129 13.2709 6.73129C16.4188 6.73129 17 8.80644 17 11.5041V17ZM3.8029 5.61098C2.80648 5.61098 2 4.80166 2 3.80498C2 2.80903 2.80648 2 3.8029 2C4.7967 2 5.60434 2.80903 5.60434 3.80498C5.60434 4.80166 4.7967 5.61098 3.8029 5.61098ZM2.24787 17V6.98061H5.35662V17H2.24787Z" fill="black"/>
</svg>
