<svg width="912" height="955" viewBox="0 0 912 955" fill="none" xmlns="http://www.w3.org/2000/svg">
<g clip-path="url(#clip0_17702_24)">
<path d="M816.69 0H95.23C42.64 0 0 42.64 0 95.23V425.31C0 477.91 42.64 520.54 95.23 520.54H315.57L422.97 680.71C438.71 704.18 473.23 704.18 488.97 680.71L596.36 520.55H816.7C869.29 520.55 911.93 477.91 911.93 425.32V95.23C911.93 42.64 869.29 0 816.7 0H816.69Z" fill="#F04922"/>
<path d="M278.72 358.61C266.04 336.1 252.33 313.87 237.57 291.92C222.81 269.98 207.11 249.26 190.46 229.77V358.61H146.76V161.95H182.8C189.04 168.2 195.94 175.86 203.51 184.94C211.08 194.02 218.79 203.72 226.64 214.03C234.49 224.35 242.29 235.03 250.05 246.1C257.8 257.17 265.09 267.81 271.9 278.02V161.95H315.89V358.61H278.71H278.72Z" fill="white"/>
<path d="M361.3 358.61V161.95H494.11V199.13H405.57V237.73H484.18V274.05H405.57V321.44H500.64V358.62H361.3V358.61Z" fill="white"/>
<path d="M665.43 182.95C667.69 190.71 670.2 199.45 672.94 209.2C675.78 219.298 678.707 229.372 681.72 239.42C684.83 249.83 688 260.24 691.21 270.64C694.42 281.05 697.54 290.69 700.56 299.59C703.03 289.94 705.55 279.44 708.12 268.08C710.68 256.73 713.11 245 715.39 232.89C717.67 220.79 719.9 208.73 722.09 196.71C724.27 184.7 726.32 173.11 728.22 161.94H774.21C767.55 194.86 759.89 228.26 751.23 262.12C742.57 295.99 733.2 328.15 723.12 358.61H682.63C676.02 340.45 669.6 321.39 663.37 301.43C657.13 281.47 651 261.46 644.96 241.41C638.9 261.46 632.84 281.47 626.77 301.43C620.71 321.39 614.37 340.45 607.74 358.61H567.28C557.21 328.15 547.85 295.99 539.21 262.12C530.56 228.26 522.92 194.86 516.27 161.94H564.23C566.13 173.11 568.22 184.7 570.5 196.71C572.78 208.73 575.16 220.79 577.63 232.89C580.1 245 582.62 256.73 585.19 268.08C587.76 279.43 590.37 289.93 593.03 299.59C596.44 290.32 599.76 280.48 602.98 270.07C606.2 259.67 609.33 249.26 612.36 238.85C615.39 228.45 618.18 218.42 620.74 208.77C623.3 199.12 625.62 190.51 627.71 182.95H665.45H665.43Z" fill="white"/>
<g opacity="0.08">
<path opacity="0.02" d="M879.02 893.71C879.02 927.245 689.61 954.43 455.96 954.43C222.31 954.43 32.9 927.245 32.9 893.71C32.9 860.175 222.31 832.99 455.96 832.99C689.61 832.99 879.02 860.175 879.02 893.71Z" fill="black"/>
<path opacity="0.04" d="M872.61 893.71C872.61 926.737 686.07 953.51 455.96 953.51C225.85 953.51 39.31 926.737 39.31 893.71C39.31 860.683 225.85 833.91 455.96 833.91C686.07 833.91 872.61 860.683 872.61 893.71Z" fill="black"/>
<path opacity="0.06" d="M866.19 893.71C866.19 926.229 682.524 952.59 455.96 952.59C229.396 952.59 45.73 926.229 45.73 893.71C45.73 861.191 229.396 834.83 455.96 834.83C682.524 834.83 866.19 861.191 866.19 893.71Z" fill="black"/>
<path opacity="0.08" d="M859.78 893.71C859.78 925.72 678.984 951.67 455.96 951.67C232.936 951.67 52.14 925.72 52.14 893.71C52.14 861.7 232.936 835.75 455.96 835.75C678.984 835.75 859.78 861.7 859.78 893.71Z" fill="black"/>
<path opacity="0.1" d="M853.37 893.71C853.37 925.212 675.443 950.75 455.96 950.75C236.477 950.75 58.55 925.212 58.55 893.71C58.55 862.208 236.477 836.67 455.96 836.67C675.443 836.67 853.37 862.208 853.37 893.71Z" fill="black"/>
<path opacity="0.12" d="M846.95 893.71C846.95 924.704 671.898 949.83 455.96 949.83C240.022 949.83 64.97 924.704 64.97 893.71C64.97 862.716 240.022 837.59 455.96 837.59C671.898 837.59 846.95 862.716 846.95 893.71Z" fill="black"/>
<path opacity="0.14" d="M840.54 893.71C840.54 924.196 668.358 948.91 455.96 948.91C243.562 948.91 71.38 924.196 71.38 893.71C71.38 863.224 243.562 838.51 455.96 838.51C668.358 838.51 840.54 863.224 840.54 893.71Z" fill="black"/>
<path opacity="0.16" d="M834.12 893.71C834.12 923.688 664.812 947.99 455.96 947.99C247.108 947.99 77.8 923.688 77.8 893.71C77.8 863.732 247.108 839.43 455.96 839.43C664.812 839.43 834.12 863.732 834.12 893.71Z" fill="black"/>
<path opacity="0.18" d="M827.71 893.71C827.71 923.174 661.272 947.06 455.96 947.06C250.648 947.06 84.21 923.174 84.21 893.71C84.21 864.246 250.648 840.36 455.96 840.36C661.272 840.36 827.71 864.246 827.71 893.71Z" fill="black"/>
<path opacity="0.2" d="M821.29 893.71C821.29 922.666 657.726 946.14 455.96 946.14C254.194 946.14 90.63 922.666 90.63 893.71C90.63 864.754 254.194 841.28 455.96 841.28C657.726 841.28 821.29 864.754 821.29 893.71Z" fill="black"/>
<path opacity="0.22" d="M814.88 893.71C814.88 922.158 654.186 945.22 455.96 945.22C257.734 945.22 97.04 922.158 97.04 893.71C97.04 865.262 257.734 842.2 455.96 842.2C654.186 842.2 814.88 865.262 814.88 893.71Z" fill="black"/>
<path opacity="0.24" d="M808.47 893.71C808.47 921.65 650.646 944.3 455.96 944.3C261.274 944.3 103.45 921.65 103.45 893.71C103.45 865.77 261.274 843.12 455.96 843.12C650.646 843.12 808.47 865.77 808.47 893.71Z" fill="black"/>
<path opacity="0.25" d="M802.05 893.71C802.05 921.142 647.1 943.38 455.96 943.38C264.82 943.38 109.87 921.142 109.87 893.71C109.87 866.278 264.82 844.04 455.96 844.04C647.1 844.04 802.05 866.278 802.05 893.71Z" fill="black"/>
<path opacity="0.27" d="M795.64 893.71C795.64 920.634 643.56 942.46 455.96 942.46C268.36 942.46 116.28 920.634 116.28 893.71C116.28 866.786 268.36 844.96 455.96 844.96C643.56 844.96 795.64 866.786 795.64 893.71Z" fill="black"/>
<path opacity="0.29" d="M789.22 893.71C789.22 920.126 640.014 941.54 455.96 941.54C271.906 941.54 122.7 920.126 122.7 893.71C122.7 867.294 271.906 845.88 455.96 845.88C640.014 845.88 789.22 867.294 789.22 893.71Z" fill="black"/>
<path opacity="0.31" d="M782.81 893.71C782.81 919.618 636.474 940.62 455.96 940.62C275.446 940.62 129.11 919.618 129.11 893.71C129.11 867.802 275.446 846.8 455.96 846.8C636.474 846.8 782.81 867.802 782.81 893.71Z" fill="black"/>
<path opacity="0.33" d="M776.39 893.71C776.39 919.11 632.929 939.7 455.96 939.7C278.991 939.7 135.53 919.11 135.53 893.71C135.53 868.31 278.991 847.72 455.96 847.72C632.929 847.72 776.39 868.31 776.39 893.71Z" fill="black"/>
<path opacity="0.35" d="M769.98 893.71C769.98 918.601 629.388 938.78 455.96 938.78C282.532 938.78 141.94 918.601 141.94 893.71C141.94 868.819 282.532 848.64 455.96 848.64C629.388 848.64 769.98 868.819 769.98 893.71Z" fill="black"/>
<path opacity="0.37" d="M763.57 893.71C763.57 918.093 625.848 937.86 455.96 937.86C286.072 937.86 148.35 918.093 148.35 893.71C148.35 869.327 286.072 849.56 455.96 849.56C625.848 849.56 763.57 869.327 763.57 893.71Z" fill="black"/>
<path opacity="0.39" d="M757.15 893.71C757.15 917.585 622.303 936.94 455.96 936.94C289.617 936.94 154.77 917.585 154.77 893.71C154.77 869.835 289.617 850.48 455.96 850.48C622.303 850.48 757.15 869.835 757.15 893.71Z" fill="black"/>
<path opacity="0.41" d="M750.74 893.71C750.74 917.077 618.762 936.02 455.96 936.02C293.158 936.02 161.18 917.077 161.18 893.71C161.18 870.343 293.158 851.4 455.96 851.4C618.762 851.4 750.74 870.343 750.74 893.71Z" fill="black"/>
<path opacity="0.43" d="M744.32 893.71C744.32 916.57 615.217 935.1 455.96 935.1C296.703 935.1 167.6 916.57 167.6 893.71C167.6 870.85 296.703 852.32 455.96 852.32C615.217 852.32 744.32 870.85 744.32 893.71Z" fill="black"/>
<path opacity="0.45" d="M737.91 893.71C737.91 916.061 611.677 934.18 455.96 934.18C300.243 934.18 174.01 916.061 174.01 893.71C174.01 871.359 300.243 853.24 455.96 853.24C611.677 853.24 737.91 871.359 737.91 893.71Z" fill="black"/>
<path opacity="0.47" d="M731.49 893.71C731.49 915.553 608.131 933.26 455.96 933.26C303.789 933.26 180.43 915.553 180.43 893.71C180.43 871.867 303.789 854.16 455.96 854.16C608.131 854.16 731.49 871.867 731.49 893.71Z" fill="black"/>
<path opacity="0.49" d="M725.08 893.71C725.08 915.045 604.59 932.34 455.96 932.34C307.33 932.34 186.84 915.045 186.84 893.71C186.84 872.375 307.33 855.08 455.96 855.08C604.59 855.08 725.08 872.375 725.08 893.71Z" fill="black"/>
<path opacity="0.51" d="M718.67 893.71C718.67 914.531 601.05 931.41 455.96 931.41C310.87 931.41 193.25 914.531 193.25 893.71C193.25 872.889 310.87 856.01 455.96 856.01C601.05 856.01 718.67 872.889 718.67 893.71Z" fill="black"/>
<path opacity="0.53" d="M712.25 893.71C712.25 914.023 597.505 930.49 455.96 930.49C314.415 930.49 199.67 914.023 199.67 893.71C199.67 873.397 314.415 856.93 455.96 856.93C597.505 856.93 712.25 873.397 712.25 893.71Z" fill="black"/>
<path opacity="0.55" d="M705.84 893.71C705.84 913.515 593.965 929.57 455.96 929.57C317.955 929.57 206.08 913.515 206.08 893.71C206.08 873.905 317.955 857.85 455.96 857.85C593.965 857.85 705.84 873.905 705.84 893.71Z" fill="black"/>
<path opacity="0.57" d="M699.42 893.71C699.42 913.007 590.42 928.65 455.96 928.65C321.5 928.65 212.5 913.007 212.5 893.71C212.5 874.413 321.5 858.77 455.96 858.77C590.42 858.77 699.42 874.413 699.42 893.71Z" fill="black"/>
<path opacity="0.59" d="M693.01 893.71C693.01 912.499 586.88 927.73 455.96 927.73C325.04 927.73 218.91 912.499 218.91 893.71C218.91 874.921 325.04 859.69 455.96 859.69C586.88 859.69 693.01 874.921 693.01 893.71Z" fill="black"/>
<path opacity="0.61" d="M686.59 893.71C686.59 911.99 583.333 926.81 455.96 926.81C328.587 926.81 225.33 911.99 225.33 893.71C225.33 875.43 328.587 860.61 455.96 860.61C583.333 860.61 686.59 875.43 686.59 893.71Z" fill="black"/>
<path opacity="0.63" d="M680.18 893.71C680.18 911.483 579.793 925.89 455.96 925.89C332.127 925.89 231.74 911.483 231.74 893.71C231.74 875.937 332.127 861.53 455.96 861.53C579.793 861.53 680.18 875.937 680.18 893.71Z" fill="black"/>
<path opacity="0.65" d="M673.77 893.71C673.77 910.974 576.253 924.97 455.96 924.97C335.667 924.97 238.15 910.974 238.15 893.71C238.15 876.446 335.667 862.45 455.96 862.45C576.253 862.45 673.77 876.446 673.77 893.71Z" fill="black"/>
<path opacity="0.67" d="M667.35 893.71C667.35 910.466 572.707 924.05 455.96 924.05C339.213 924.05 244.57 910.466 244.57 893.71C244.57 876.954 339.213 863.37 455.96 863.37C572.707 863.37 667.35 876.954 667.35 893.71Z" fill="black"/>
<path opacity="0.69" d="M660.94 893.71C660.94 909.958 569.167 923.13 455.96 923.13C342.753 923.13 250.98 909.958 250.98 893.71C250.98 877.462 342.753 864.29 455.96 864.29C569.167 864.29 660.94 877.462 660.94 893.71Z" fill="black"/>
<path opacity="0.71" d="M654.52 893.71C654.52 909.45 565.622 922.21 455.96 922.21C346.298 922.21 257.4 909.45 257.4 893.71C257.4 877.97 346.298 865.21 455.96 865.21C565.622 865.21 654.52 877.97 654.52 893.71Z" fill="black"/>
<path opacity="0.73" d="M648.11 893.71C648.11 908.942 562.082 921.29 455.96 921.29C349.838 921.29 263.81 908.942 263.81 893.71C263.81 878.478 349.838 866.13 455.96 866.13C562.082 866.13 648.11 878.478 648.11 893.71Z" fill="black"/>
<path opacity="0.75" d="M641.69 893.71C641.69 908.434 558.536 920.37 455.96 920.37C353.384 920.37 270.23 908.434 270.23 893.71C270.23 878.986 353.384 867.05 455.96 867.05C558.536 867.05 641.69 878.986 641.69 893.71Z" fill="black"/>
<path opacity="0.76" d="M635.28 893.71C635.28 907.926 554.996 919.45 455.96 919.45C356.924 919.45 276.64 907.926 276.64 893.71C276.64 879.494 356.924 867.97 455.96 867.97C554.996 867.97 635.28 879.494 635.28 893.71Z" fill="black"/>
<path opacity="0.78" d="M628.87 893.71C628.87 907.418 551.456 918.53 455.96 918.53C360.464 918.53 283.05 907.418 283.05 893.71C283.05 880.002 360.464 868.89 455.96 868.89C551.456 868.89 628.87 880.002 628.87 893.71Z" fill="black"/>
<path opacity="0.8" d="M622.45 893.71C622.45 906.91 547.91 917.61 455.96 917.61C364.01 917.61 289.47 906.91 289.47 893.71C289.47 880.51 364.01 869.81 455.96 869.81C547.91 869.81 622.45 880.51 622.45 893.71Z" fill="black"/>
<path opacity="0.82" d="M616.04 893.71C616.04 906.396 544.37 916.68 455.96 916.68C367.55 916.68 295.88 906.396 295.88 893.71C295.88 881.024 367.55 870.74 455.96 870.74C544.37 870.74 616.04 881.024 616.04 893.71Z" fill="black"/>
<path opacity="0.84" d="M609.62 893.71C609.62 905.888 540.824 915.76 455.96 915.76C371.096 915.76 302.3 905.888 302.3 893.71C302.3 881.532 371.096 871.66 455.96 871.66C540.824 871.66 609.62 881.532 609.62 893.71Z" fill="black"/>
<path opacity="0.86" d="M603.21 893.71C603.21 905.38 537.284 914.84 455.96 914.84C374.636 914.84 308.71 905.38 308.71 893.71C308.71 882.04 374.636 872.58 455.96 872.58C537.284 872.58 603.21 882.04 603.21 893.71Z" fill="black"/>
<path opacity="0.88" d="M596.79 893.71C596.79 904.872 533.738 913.92 455.96 913.92C378.182 913.92 315.13 904.872 315.13 893.71C315.13 882.548 378.182 873.5 455.96 873.5C533.738 873.5 596.79 882.548 596.79 893.71Z" fill="black"/>
<path opacity="0.9" d="M590.38 893.71C590.38 904.364 530.198 913 455.96 913C381.722 913 321.54 904.364 321.54 893.71C321.54 883.056 381.722 874.42 455.96 874.42C530.198 874.42 590.38 883.056 590.38 893.71Z" fill="black"/>
<path opacity="0.92" d="M583.97 893.71C583.97 903.855 526.658 912.08 455.96 912.08C385.262 912.08 327.95 903.855 327.95 893.71C327.95 883.565 385.262 875.34 455.96 875.34C526.658 875.34 583.97 883.565 583.97 893.71Z" fill="black"/>
<path opacity="0.94" d="M577.55 893.71C577.55 903.347 523.112 911.16 455.96 911.16C388.808 911.16 334.37 903.347 334.37 893.71C334.37 884.073 388.808 876.26 455.96 876.26C523.112 876.26 577.55 884.073 577.55 893.71Z" fill="black"/>
<path opacity="0.96" d="M571.14 893.71C571.14 902.84 519.572 910.24 455.96 910.24C392.348 910.24 340.78 902.84 340.78 893.71C340.78 884.58 392.348 877.18 455.96 877.18C519.572 877.18 571.14 884.58 571.14 893.71Z" fill="black"/>
<path opacity="0.98" d="M564.72 893.71C564.72 902.331 516.026 909.32 455.96 909.32C395.894 909.32 347.2 902.331 347.2 893.71C347.2 885.089 395.894 878.1 455.96 878.1C516.026 878.1 564.72 885.089 564.72 893.71Z" fill="black"/>
<path d="M558.31 893.71C558.31 901.823 512.486 908.4 455.96 908.4C399.434 908.4 353.61 901.823 353.61 893.71C353.61 885.597 399.434 879.02 455.96 879.02C512.486 879.02 558.31 885.597 558.31 893.71Z" fill="black"/>
</g>
</g>
<defs>
<clipPath id="clip0_17702_24">
<rect width="911.93" height="954.43" fill="white"/>
</clipPath>
</defs>
</svg>
