<svg width="1200" height="55" viewBox="0 0 1200 55" fill="none" xmlns="http://www.w3.org/2000/svg">
<path d="M547.745 0L548.47 0.0703365C550.112 0.404911 551.346 1.85981 551.346 3.60123C551.346 5.34264 550.112 6.79754 548.47 7.13212L547.745 7.20245H3.60123C1.61232 7.20245 0 5.59013 0 3.60123C0 1.61232 1.61232 0 3.60123 0H547.745Z" fill="#0F9976"/>
<path d="M1196.4 0L1197.12 0.0703365C1198.77 0.405135 1200 1.86002 1200 3.60123C1200 5.34244 1198.77 6.79732 1197.12 7.13212L1196.4 7.20245H646.192L600.213 53.5331C598.812 54.9418 596.531 54.9472 595.121 53.5471C593.711 52.1459 593.706 49.8657 595.107 48.4548L643.189 0H1196.4Z" fill="#0F9976"/>
</svg>
