<?xml version="1.0" encoding="UTF-8"?>
<svg data-bbox="1.13 1.13 123 130.79" viewBox="0 0 125.26 131.92" xmlns="http://www.w3.org/2000/svg" data-type="ugc">
    <g>
        <defs>
            <clipPath id="05c33d83-4d62-46d3-99d5-15d17d329f20">
                <path d="M29.7 10.68c9.52-6.05 20.82-9.55 32.93-9.55 33.97 0 61.5 27.53 61.5 61.5s-27.53 61.5-61.5 61.5-61.5-27.53-61.5-61.5c0-11.26 3.03-21.81 8.31-30.89"/>
            </clipPath>
        </defs>
        <g>
            <path fill="#bedacd" d="M117.84 62.63c0 30.492-24.718 55.21-55.21 55.21S7.42 93.122 7.42 62.63 32.138 7.42 62.63 7.42s55.21 24.718 55.21 55.21"/>
            <g clip-path="url(#05c33d83-4d62-46d3-99d5-15d17d329f20)">
                <path d="M67 25.77c-3.1-1.39-6.43-3.58-9.96-3-2.55.42-4.62 1.93-7.02 2.68-2.27.72-4.19 1.5-6.14 2.99-1.85 1.41-3.52 3.16-4.45 5.29-.93 2.14-1.04 4.71.08 6.75-2.3-1.16-5.04 1.47-5.01 4.05s1.76 4.78 3.41 6.77c1.4 1.68 2.8 3.37 4.19 5.05-2.76.7-4.75 3.65-4.37 6.47s3.08 5.14 5.93 5.08c1.47 6.47 5.41 12.35 10.83 16.18-7.24 3.32-14.77 6.86-19.64 13.16-7.01 9.06-6.92 21.55-6.51 33l69.51.21c1.11 0-.54-12.4-.64-13.92-.31-4.58-.58-9.45-2.58-13.67-2.78-5.88-7.62-10.76-13.47-13.59a16.83 16.83 0 0 1-9.72-4.74c5.46-4.22 9.18-10.61 10.16-17.44 2.83 1.06 6.38-.57 7.42-3.41s-.62-6.38-3.48-7.39c1.02-2.89 2.58-5 2.53-8.2-.03-2.06-.03-4.39 1.45-5.83.87-.84 2.29-1.48 2.23-2.7-.05-1.12-1.33-1.68-2.37-2.11a14.8 14.8 0 0 1-5.4-3.86c-1.27-1.44-1.84-3.18-3.18-4.54-2.79-2.83-6.36-4.36-10.35-4.23-.43.01-3.34.98-3.47.93Z" fill="#ffffff"/>
                <path d="M68.58 28.31s-.08.02-.12.02c-1.55.31-2.51 1.45-3.91 1.91-3.66 1.19-5.84-3.4-10.15-1.57-2.61 1.11-4.05 2.87-6.92 3.36-2.21.37-4.88.35-6.23 2.47-.94 1.48.35 2.2.19 3.38-.16 1.17-1.4 2.4-2.11 3.37-1.31 1.79-3.04 3.45-2.56 5.81.47 2.32 2.72 4.81 3.95 6.77.29.46.69.98 1.23.9.42-.06.7-.49.79-.91s.06-.86.18-1.27c.86-3.17 5.72-1.31 6.87-4.62.95-2.74 1.39-5.3 5.44-4.41 1.24.27 2.54.95 3.69.41 1.76-.82 3.57-6.23 5.72-2.41.83 1.47-.21 3.48.95 4.96 1.12 1.43 3.22 1.14 4.52 2.3 1.03.92 1.28 2.57 2.47 3.26 1.42.83 3.08-.24 4.5.46.95.46 1.17 1.64 2.02 2.19 2.71 1.78 5.13-.61 6.13-3.08 1-2.46 1.99-4.91 2.99-7.37.48-1.18.96-2.48.55-3.68-.34-1.01-1.24-1.71-2.09-2.35-2.98-2.24-5.39-4.49-7.96-7.06-2.43-2.43-6.8-3.48-10.13-2.85Z" fill="#e8d575"/>
                <path d="M63.03 68.08c-.84 0-1.77-.17-2.47-.77-.48-.41-1.04-1.18-.93-2.5.05-.61.58-1.07 1.2-1.01.61.05 1.06.59 1.01 1.2-.04.46.1.58.15.62.35.29 1.35.33 2.33.08.59-.15 1.2.21 1.35.8s-.21 1.2-.8 1.35c-.4.1-1.08.24-1.83.24Z" fill="#404040"/>
                <path d="M63.35 86.42c-.28 0-.57 0-.85-.01-6.46-.23-12.15-3.19-16.02-8.36C42.9 73.28 42.15 63.5 43 55.93a1.112 1.112 0 0 1 2.21.25c-.77 6.91-.14 16.28 3.05 20.55 3.46 4.62 8.54 7.27 14.32 7.47 5.79.21 10.72-1.89 13.87-5.88 3.56-4.53 5.53-14.47 4.49-22.65-.08-.61.35-1.16.96-1.24s1.16.35 1.24.96c1.13 8.83-1 19.28-4.94 24.3-3.44 4.37-8.68 6.74-14.84 6.74Z" fill="#404040"/>
                <path d="M42.7 68.79c-.05 0-.11 0-.16-.01-3.33-.48-5.68-2.31-6.43-5.02-.7-2.53.15-5.49 2.03-7.02 1.46-1.2 3.31-1.37 5.06-.47.55.28.76.95.48 1.49-.28.55-.95.76-1.49.48-.98-.5-1.87-.43-2.65.21-1.21.99-1.77 3.02-1.3 4.71.52 1.85 2.15 3.07 4.61 3.42.61.09 1.03.65.94 1.25-.08.55-.55.95-1.1.95Z" fill="#404040"/>
                <path d="M83.55 68.37c-.57 0-1.06-.44-1.1-1.03-.05-.61.41-1.14 1.02-1.19 2.33-.18 3.96-1.22 4.6-2.94.55-1.49.2-3.27-.85-4.33-1.05-1.05-2.63-1.26-4.46-.59-.57.21-1.21-.08-1.42-.66-.21-.57.08-1.21.66-1.42 2.64-.98 5.12-.58 6.8 1.1 1.67 1.68 2.22 4.36 1.36 6.67-.94 2.54-3.32 4.13-6.51 4.37h-.08Z" fill="#404040"/>
                <path d="M63.1 77.34c-2.5 0-4.74-1.53-5.88-4-.02-.04-.03-.07-.05-.11a.928.928 0 0 1 1.23-1.22c.72.1 4.02.06 6.02.04 2.14-.02 3.37-.04 3.77 0 .29.03.55.2.7.45s.17.56.05.83c-1.06 2.45-3.29 3.98-5.82 3.99h-.02Zm-3.33-3.41c.87 1 2.04 1.57 3.33 1.57h.02c1.31 0 2.51-.6 3.35-1.61-.62 0-1.34.01-2.03.02-2.15.03-3.64.04-4.68.02Z" fill="#404040"/>
                <path d="M61.75 97.08c-5.96 0-12.6-1.17-17.08-6.04-.41-.45-.39-1.15.07-1.57.45-.41 1.15-.39 1.57.07 5.34 5.81 14.54 5.65 21 5.03a1.11 1.11 0 0 1 .21 2.21c-1.77.17-3.72.31-5.76.31Z" fill="#404040"/>
                <path d="M70.83 96.71c-.4 0-.79-.22-.99-.61-.28-.55-.06-1.21.49-1.49 1.16-.59 2.33-1.01 3.47-1.42 2.99-1.08 4.7-1.79 5.06-3.87.11-.6.68-1.01 1.28-.9s1.01.68.9 1.28c-.6 3.44-3.6 4.52-6.5 5.57-1.08.39-2.19.79-3.22 1.31-.16.08-.33.12-.5.12Z" fill="#404040"/>
                <path d="M27.93 131.92c-.32 0-.63-.14-.84-.38-.42-.48-.58-.66.53-11.74.53-5.3 1.14-10.79 1.22-11.52q.03-.255.06-.6c.29-2.86 1.08-10.47 6.69-13.77 1.55-.91 3.03-2.15 4.46-3.35.71-.59 1.45-1.21 2.18-1.78.48-.37 1.18-.29 1.56.2.37.48.29 1.18-.2 1.56-.7.54-1.39 1.12-2.12 1.72-1.5 1.26-3.06 2.56-4.76 3.56-4.65 2.73-5.35 9.53-5.61 12.08-.02.24-.05.46-.07.63-.31 2.58-2.16 19.79-2.06 21.89.04.12.07.24.07.38 0 .61-.5 1.11-1.11 1.11Zm0-2.22" fill="#404040"/>
                <path d="M97.39 130.52c-.61 0-1.11-.49-1.11-1.11-.01-5.21-.1-10.79-.63-16.27a1.11 1.11 0 0 1 1-1.21c.61-.05 1.15.39 1.21 1 .54 5.57.63 11.21.64 16.48 0 .61-.49 1.11-1.11 1.11" fill="#404040"/>
                <path d="M96.77 114.29a1.1 1.1 0 0 1-1.08-.87c-.39-1.75-2.01-12.17-2.53-13.62-.67-1.87-2.07-3.26-4.68-4.62-3.16-1.65-4.9-3.25-7.4-6a1.11 1.11 0 0 1 .08-1.57 1.11 1.11 0 0 1 1.57.08c2.37 2.61 3.91 4.02 6.79 5.53 2.09 1.1 4.64 2.75 5.74 5.84.55 1.54 2.19 12.05 2.6 13.89.13.6-.24 1.19-.84 1.32q-.12.03-.24.03Z" fill="#404040"/>
                <path d="M34.39 46.74c-.56 0-1.04-.42-1.1-.99-.21-1.93.44-3.94 1.76-5.37a6.83 6.83 0 0 1 3.36-1.98c-.78-1.79-.87-3.88-.19-5.71.92-2.45 3.09-3.71 5-4.82.97-.56 1.88-1.09 2.62-1.74 2.72-2.38 6.08-3.8 9.71-4.11.48-.04 1.03-.13 1.62-.23 1.3-.21 2.64-.43 3.84-.25 1.85.28 3.32 1.6 4.61 2.76.16.15.33.29.49.43 4.89-2.28 11.22-1.21 15.03 2.63 1.06 1.07 1.78 2.37 2.48 3.62.93 1.68 1.81 3.27 3.39 4 .41.19.86.33 1.33.49.39.13.8.26 1.21.43 1.29.52 2.19 1.27 2.67 2.21.63 1.23.48 3.03-.87 3.9-.51.33-1.2.19-1.53-.33-.33-.51-.19-1.2.33-1.53.23-.15.29-.67.1-1.03-.23-.46-.75-.85-1.53-1.17-.33-.14-.69-.25-1.06-.37-.52-.17-1.05-.34-1.58-.58-2.23-1.03-3.33-3.02-4.4-4.94-.65-1.17-1.26-2.28-2.11-3.13-3.32-3.35-8.95-4.16-13.08-1.9-.39.21-.88.17-1.23-.11-.36-.29-.73-.63-1.11-.97-1.12-1-2.27-2.04-3.47-2.22-.85-.13-2.02.06-3.14.24-.63.1-1.22.2-1.78.25-3.16.27-6.08 1.5-8.44 3.57-.9.79-1.95 1.4-2.96 1.99-1.74 1.01-3.39 1.97-4.03 3.68-.64 1.7-.32 3.72.8 5.15.27.34.31.8.12 1.19-.19.38-.57.62-1.03.61-1.31-.04-2.62.51-3.51 1.47s-1.33 2.31-1.19 3.62c.07.61-.37 1.16-.98 1.22h-.12Z" fill="#404040"/>
                <path d="M56.12 56.22c-.11.91-.93 1.56-1.84 1.46-.91-.11-1.56-.93-1.45-1.84s.93-1.56 1.84-1.46c.91.11 1.56.93 1.45 1.84" fill="#404040"/>
                <path d="M73.29 56.22c-.11.91-.93 1.56-1.84 1.46-.91-.11-1.56-.93-1.45-1.84s.93-1.56 1.84-1.45 1.56.93 1.45 1.84Z" fill="#404040"/>
                <path d="M41.82 59.32c-.56 0-1.04-.42-1.1-.98-.23-1.99-.59-4.19-2.06-5.14-.16-.1-.32-.19-.49-.28-.49-.26-1.11-.59-1.55-1.18-.49-.67-.57-1.65-.19-2.4.32-.63.9-1.03 1.6-1 .61 0 1.11.5 1.1 1.12 0 .46-.29.86-.69 1.02.14.16.45.33.77.5.22.12.44.23.65.37 2.48 1.59 2.86 4.95 3.07 6.75.07.61-.37 1.16-.98 1.23h-.13Z" fill="#404040"/>
                <path d="M82.55 59.99c-.25 0-.51-.09-.71-.26a1.1 1.1 0 0 1-.13-1.56l4.69-5.55c.28-.34.61-.72.67-1.05.07-.36-.11-.85-.31-1.36-.06-.15-.11-.3-.17-.46-.51-1.47-.3-2.75.57-3.52a1.11 1.11 0 0 1 1.57.09c.41.46.37 1.16-.09 1.57-.12.11-.14.58.06 1.14.05.13.1.27.15.4.27.71.6 1.6.41 2.58-.18.89-.74 1.56-1.15 2.05l-4.69 5.55a1.1 1.1 0 0 1-.85.39Z" fill="#404040"/>
                <path d="M49.54 88.89a1.111 1.111 0 0 1-.56-2.07c1.73-1.01 3.2-2.55 4.14-4.34.29-.54.96-.75 1.5-.47.54.29.75.96.47 1.5-1.13 2.16-2.9 4.01-4.99 5.22-.18.1-.37.15-.56.15Z" fill="#404040"/>
                <path d="M79.74 89.97c-.11 0-.21-.02-.32-.05-3.3-1-6.14-3.08-7.77-5.7-.32-.52-.16-1.2.36-1.53.52-.32 1.2-.16 1.53.36 1.35 2.18 3.73 3.91 6.53 4.75.59.18.92.8.74 1.38a1.1 1.1 0 0 1-1.06.79Z" fill="#404040"/>
                <path d="M44.6 56.72c-.18 0-.35-.04-.52-.13-.71-.38-1.18-1.06-1.32-1.91-.17-1.04.2-2.2.93-2.97.87-.91 2.02-1.32 3.04-1.68.2-.07.39-.14.58-.21 1.68-.64 4.04-2.89 4.41-4.61l.02-.08c.23-1.06.65-3.03 2.46-3.03h.05c1.04.02 1.66.79 2.07 1.29.07.08.13.17.2.24.62.71 1.72.99 2.61.67s1.55-1.25 1.56-2.19c.01-.61.51-1.11 1.13-1.09.61.01 1.1.52 1.09 1.13-.03 1.86-1.28 3.6-3.02 4.24s-3.82.11-5.04-1.29c-.09-.1-.17-.2-.26-.31-.1-.12-.24-.29-.35-.4-.15.28-.28.88-.34 1.2l-.02.08c-.55 2.58-3.5 5.35-5.79 6.22-.21.08-.42.15-.63.23-.86.31-1.67.6-2.18 1.13-.26.27-.4.72-.34 1.08.04.24.14.29.17.31.54.29.74.96.46 1.5-.2.37-.58.59-.98.59Z" fill="#404040"/>
                <path d="M82.31 58.05c-.5 0-1-.09-1.49-.27-1.27-.46-2.23-1.44-2.56-2.63-.1-.35-.15-.71-.19-1.03-.06-.44-.13-.9-.3-1.05-.18-.16-.71-.12-1.29.1-.13.05-.27.11-.41.17-.75.31-1.6.67-2.6.54-1.46-.19-2.3-1.26-3.04-2.2-.44-.56-.86-1.09-1.33-1.35-.35-.19-.83-.27-1.34-.36-.71-.12-1.51-.26-2.24-.73-1.16-.75-1.85-2.21-1.8-3.81.03-1.29.49-2.48.89-3.52a1.109 1.109 0 0 1 2.07.79c-.35.92-.72 1.87-.74 2.78-.02.82.29 1.56.79 1.89.35.23.87.32 1.42.41.63.11 1.34.23 2.01.59.88.47 1.49 1.25 2.03 1.93.64.81 1.06 1.3 1.59 1.37.4.06.91-.16 1.45-.39.15-.06.3-.13.46-.19 1.45-.57 2.72-.45 3.58.31.77.7.9 1.64 1.01 2.39.04.27.07.52.13.73.14.5.58.93 1.18 1.15s1.21.17 1.64-.13c.51-.35 1.2-.22 1.54.29.35.5.22 1.2-.29 1.54-.62.43-1.38.65-2.16.65Z" fill="#404040"/>
                <path d="M53.61 63.3c-1.48 0-2.96-.31-4.2-.92-2.43-1.2-3.79-3.47-3.4-5.67a.74.74 0 1 1 1.46.26c-.28 1.54.77 3.18 2.6 4.08 1.92.94 4.66 1.02 6.67.17 1.93-.81 3.15-2.4 3.02-3.96-.03-.41.27-.76.68-.8.4-.03.76.27.8.68.18 2.2-1.4 4.38-3.92 5.44-1.12.47-2.41.7-3.7.7Z" fill="#404040"/>
                <path d="M71.73 62.84c-1.3 0-2.6-.24-3.72-.72-2.43-1.04-3.97-3.17-3.83-5.3.03-.41.39-.71.79-.69.41.03.72.38.69.79-.1 1.5 1.08 3.04 2.93 3.84 1.96.84 4.57.8 6.49-.08 1.81-.84 2.9-2.4 2.73-3.9-.05-.41.24-.77.65-.82.42-.05.77.24.82.65.25 2.13-1.19 4.3-3.58 5.41-1.18.55-2.57.82-3.97.82" fill="#404040"/>
                <path d="M63.95 54.55c-.07 0-.15-.01-.22-.03-1.08-.34-1.41-.35-2.47-.03-.26.08-.55 0-.74-.2-1.12-1.17-3.47-1.96-6.43-2.16-2.32-.16-4.72.48-6.41 1.7-.13.1-.29.14-.45.14l-1.29-.03c-.41 0-.73-.35-.72-.76 0-.41.35-.73.76-.72l1.05.02c1.94-1.33 4.6-2.01 7.17-1.84 1.85.13 5.13.6 7.07 2.3.96-.25 1.57-.24 2.55.04 1.64-1.2 4.11-1.91 7.34-2.11 2.65-.16 5.36.45 7.51 1.67l2.33-.23c.42-.04.77.26.81.66a.74.74 0 0 1-.66.81l-2.57.26a.74.74 0 0 1-.46-.1c-1.92-1.16-4.43-1.74-6.87-1.59-2.15.13-5.08.59-6.8 2.02-.13.11-.3.17-.47.17Z" fill="#404040"/>
            </g>
            <path d="M29.7 10.68c9.52-6.05 20.82-9.55 32.93-9.55 33.97 0 61.5 27.53 61.5 61.5s-27.53 61.5-61.5 61.5-61.5-27.53-61.5-61.5c0-11.26 3.03-21.81 8.31-30.89" fill="none" stroke="#404040" stroke-linecap="round" stroke-miterlimit="10" stroke-width="2.26"/>
        </g>
    </g>
</svg>
