<?xml version="1.0" encoding="UTF-8"?>
<svg data-bbox="0 0.01 143.78 118.72" viewBox="0 0 143.78 118.73" xmlns="http://www.w3.org/2000/svg" data-type="color">
    <g>
        <path d="M143.78 69.5h-.12l-22.79-52.4c2.76.21 5.04.4 6.76.57l.66-7.18c-7.63-.71-26.03-2.06-45.94-2.44a10.9 10.9 0 0 0-2.81-4.87C77.59 1.23 74.87.01 71.89.01s-5.71 1.21-7.66 3.17c-1.32 1.32-2.31 3-2.8 4.87-19.91.38-38.32 1.74-45.95 2.44l.67 7.19c1.71-.16 4-.35 6.75-.56L.13 69.5H0c.02.06.04.11.05.17l-.05.11.09.04c3.53 11.19 13.98 19.3 26.34 19.3s22.8-8.11 26.33-19.3l.09-.04-.05-.11c.02-.05.04-.11.05-.17h-.12L29.75 16.62c8.86-.58 20.33-1.16 32.26-1.39.54 1.22 1.3 2.31 2.22 3.23.94.95 2.07 1.72 3.32 2.27v76.13h-8.69s-2.08 13.01-11.46 15.1v6.77h48.95v-6.77c-9.37-2.08-11.46-15.1-11.46-15.1H76.2V20.74c1.25-.55 2.38-1.32 3.32-2.27.93-.92 1.69-2.02 2.23-3.23 11.93.23 23.4.81 32.26 1.39L91.02 69.5h-.13c.02.06.04.11.05.17l-.05.11.09.04c3.53 11.19 13.98 19.3 26.34 19.3s22.8-8.11 26.33-19.3l.09-.04-.05-.11c.02-.05.04-.11.05-.17Zm-95.76 0H4.84l21.6-49.65 21.59 49.64Zm27.95-54.6c-.09.09-.19.18-.29.26-1.01.9-2.33 1.43-3.79 1.43s-2.78-.53-3.8-1.43c-.1-.08-.19-.17-.29-.26a5.7 5.7 0 0 1-1.69-4.08c0-1.05.27-2.02.76-2.86.26-.45.57-.85.93-1.22 1.05-1.05 2.48-1.69 4.08-1.69s3.03.64 4.08 1.69c.37.37.68.77.93 1.22.49.84.76 1.82.76 2.86 0 1.6-.64 3.03-1.7 4.08Zm19.79 54.6 21.59-49.64 21.59 49.64z" fill="#cf767e" data-color="1"/>
    </g>
</svg>
