<?xml version="1.0" encoding="UTF-8"?>
<svg data-bbox="0.008 0 109.045 126.55" viewBox="0 0 109.05 126.55" xmlns="http://www.w3.org/2000/svg" data-type="color">
    <g>
        <path d="M49.73 126.55a2.89 2.89 0 0 1-2.77-2.99c.26-7.37-.48-13.51-1.11-14.68-.99-.33-5.21-.34-7.28-.34-5.79-.01-12.35-.03-16.26-2.39-4.64-2.8-5.95-11.99-7.18-23.7-.21-1.96-.45-4.32-.69-5.73h-.11c-.81 0-1.82.05-2.6.08-1.14.05-2.28.11-3.37.11-2.95 0-6.48-.37-7.59-3.28-2.04-5.36.12-18.24 5.25-31.31C9.65 33.07 17.8 16.28 31.58 7.76 39.76 2.67 49.2 0 58.89 0c6.9 0 13.62 1.34 19.98 3.98 14.65 6.08 25.04 17.93 28.53 32.49 6.01 25.1-5.83 45.26-12.19 56.09-1.32 2.24-2.94 5.02-3.09 5.84-.65 3.69 2.79 16.73 5.1 24.08.48 1.52-.36 3.15-1.87 3.63-.28.09-.58.14-.87.14-1.26 0-2.37-.81-2.75-2.02-1.07-3.4-6.37-20.68-5.29-26.83.33-1.86 1.71-4.21 3.8-7.77 5.95-10.13 17.01-28.98 11.54-51.8-3.05-12.74-12.21-23.13-25.13-28.5-5.77-2.4-11.79-3.61-17.88-3.61-8.47 0-16.82 2.4-24.17 6.95C13.9 25.47 3.82 62.19 5.97 70.96c.35.07 1.04.14 2.35.14 1.13 0 2.32-.06 3.11-.09 1.03-.05 2.02-.09 2.86-.09 1.62 0 2.92.15 3.95.86 1.69 1.16 1.9 3.22 2.62 10.05.56 5.33 1.87 17.81 4.42 19.35 2.54 1.54 8.76 1.55 13.29 1.56 5.83.01 9.21.1 11.09 1.75 2.99 2.64 3.31 11.93 3.06 19.26a2.87 2.87 0 0 1-2.88 2.79h-.11Z" fill="#7ba76f" data-color="1"/>
        <path d="M49.84 125.55h-.07a1.897 1.897 0 0 1-1.82-1.96c.25-7.18-.43-14.43-1.45-15.5-.81-.54-4.93-.55-7.94-.56-5.66-.01-12.07-.03-15.74-2.25-4.24-2.56-5.55-11.91-6.71-22.95-.25-2.43-.56-5.36-.85-6.6-.84-.08-2.47 0-3.61.05-4.34.2-8.83.41-9.95-2.54-1.93-5.07.28-17.94 5.25-30.59 3.59-9.13 11.62-25.7 25.16-34.07C46-.01 63.34-1.39 78.48 4.9c14.35 5.96 24.53 17.55 27.94 31.8 5.92 24.71-5.79 44.65-12.07 55.36-1.56 2.66-3.04 5.17-3.21 6.17-.77 4.35 3.45 19.2 5.14 24.56a1.9 1.9 0 0 1-1.22 2.38c-.99.31-2.05-.24-2.36-1.23-.65-2.06-6.32-20.32-5.26-26.36.3-1.68 1.64-3.97 3.68-7.44 6.02-10.25 17.22-29.32 11.66-52.54-3.13-13.06-12.5-23.7-25.72-29.19-14.24-5.91-29.9-4.67-42.96 3.41C12.64 25.07 2.44 63.71 5.16 71.74c.93.52 4.55.35 6.32.27 3.28-.15 5.05-.2 6.19.59 1.26.87 1.49 2.65 2.19 9.34.67 6.4 1.92 18.31 4.9 20.1 2.78 1.68 8.9 1.7 13.81 1.71 5.58.01 8.82.09 10.43 1.5 2.95 2.6 2.88 13.78 2.72 18.47a1.894 1.894 0 0 1-1.88 1.83" fill="#7ba76f" data-color="1"/>
        <path d="m63.72 46.08 6.39-1.11-.18-4.2-6.47-.57c-.25-1.25-.63-2.45-1.12-3.6l4.98-4.16-2.25-3.55-5.88 2.74c-.83-.94-1.76-1.8-2.77-2.55l2.24-6.09-3.73-1.95-3.72 5.31c-1.18-.39-2.41-.67-3.68-.82l-1.11-6.4-4.2.18-.57 6.46c-1.25.26-2.45.63-3.59 1.12l-4.16-4.98-3.55 2.25 2.74 5.88c-.94.84-1.8 1.77-2.55 2.78l-6.09-2.23-1.95 3.72 5.31 3.72c-.39 1.18-.67 2.41-.82 3.68l-6.38 1.11.18 4.2 6.46.57c.25 1.25.64 2.46 1.13 3.6l-4.97 4.15 2.25 3.55 5.88-2.74c.84.94 1.77 1.8 2.78 2.55l-2.23 6.09 3.73 1.95 3.72-5.31c1.18.39 2.41.67 3.68.82l1.11 6.39 4.2-.18.57-6.46c1.25-.25 2.46-.64 3.6-1.13l4.16 4.98 3.55-2.25-2.74-5.88c.94-.83 1.8-1.77 2.55-2.77l6.1 2.24 1.94-3.73-5.31-3.72c.39-1.18.67-2.41.82-3.68Zm-19-17.3c4.66-.2 8.92 1.74 11.84 4.94l-7.26 4.61c-2.57-1.92-6.61-1.59-8.82.81l-7.5-3.92c2.61-3.72 6.85-6.24 11.75-6.45ZM30.23 44.55c-.08-1.86.2-3.64.74-5.31l7.59 3.97c-.37 3.1 1.65 6.24 4.61 7.18l.36 8.54c-7.24-.87-12.99-6.86-13.31-14.38Zm13.73-3.59c.5-.24 1.1-.35 1.66-.3 1.74.12 3.1 1.71 2.98 3.42-.05.92-.48 1.74-1.14 2.3-3.87 2.98-7.81-3.12-3.5-5.42m4.06 17.84-.36-8.46c3.28-1.11 5.31-4.93 4.25-8.35l7.15-4.54c4.35 8.72-1.5 19.92-11.03 21.35Z" fill="#7ba76f" data-color="1"/>
        <path d="M88.33 71.55v.04a13.5 13.5 0 0 0-1.89-5.97l.03.04 3.18-3.47-1.96-2.33-3.96 2.54.02.03a13.2 13.2 0 0 0-5.54-2.87h.04l-.21-4.7-3.03-.26L74 59.2h.03c-2.14.15-4.16.81-5.92 1.87h.01l-3.47-3.18-2.33 1.96 2.54 3.96a13.2 13.2 0 0 0-2.84 5.49s-4.7.2-4.7.2l-.26 3.03 4.59 1c.16 2.13.81 4.13 1.86 5.88l-3.18 3.47 1.96 2.33 3.96-2.54a13.4 13.4 0 0 0 5.51 2.85h-.03l.21 4.7 3.03.26 1-4.6h-.02c2.15-.15 4.17-.82 5.93-1.89l-.03.02 3.47 3.18 2.33-1.96-2.54-3.96-.02.02a13.4 13.4 0 0 0 2.87-5.55v.05l4.7-.21.26-3.03-4.6-1Zm-4.52 1.75a8.8 8.8 0 0 1-3.12 6.02 8.77 8.77 0 0 1-6.46 2.04 8.76 8.76 0 0 1-6.01-3.12 8.78 8.78 0 0 1-2.08-5.63 8.8 8.8 0 0 1 3.15-6.85 8.82 8.82 0 0 1 6.46-2.05c2.35.2 4.49 1.31 6.01 3.12a8.82 8.82 0 0 1 2.05 6.46Z" fill="#7ba76f" data-color="1"/>
    </g>
</svg>
