<svg width="100" height="100" viewBox="0 0 100 100" fill="none" xmlns="http://www.w3.org/2000/svg">
<g clip-path="url(#clip0_17715_12)">
<path d="M100 50C100 77.6156 77.6156 100 50 100C22.3844 100 0 77.6156 0 50C0 22.3844 22.3844 0 50 0C77.6156 0 100 22.3844 100 50Z" fill="#DA7B83"/>
<path d="M45.4575 36.2578C44.5556 37.455 44.1292 39.0456 44.162 41.0463H36.7169C36.7989 39.0292 37.1433 37.1106 37.7501 35.3067C38.406 33.716 39.4228 32.2565 40.8331 30.9118C41.8826 29.9607 43.1125 29.2392 44.5556 28.7308C45.9987 28.2224 47.7534 27.9764 49.8524 27.9764C53.7389 27.9764 56.8711 28.9768 59.2489 30.9938C61.6268 32.9945 62.8239 35.7003 62.8239 39.0784C62.8239 41.4727 62.1187 43.4897 60.692 45.1296C59.7901 46.1627 58.8554 46.8515 57.8878 47.2287C58.6094 47.2287 59.6589 47.8518 61.02 49.0981C63.0535 50.984 64.0702 53.5586 64.0702 56.822C64.0702 60.2493 62.8731 63.2831 60.4952 65.8741C58.1174 68.4815 54.5917 69.777 49.9344 69.777C44.1784 69.777 40.1935 67.9076 37.9469 64.1522C36.7661 62.1516 36.1102 59.5442 35.979 56.3136H43.8176C43.8176 57.9371 44.08 59.2818 44.6048 60.3477C45.5723 62.2992 47.3434 63.2831 49.9016 63.2831C51.4759 63.2831 52.837 62.7419 54.0013 61.676C55.1656 60.6101 55.756 59.0522 55.756 57.0351C55.756 54.3621 54.6737 52.5911 52.509 51.6891C51.2791 51.1808 49.3276 50.9348 46.6874 50.9348V45.228C49.2784 45.1952 51.0987 44.9328 52.1154 44.4737C53.8865 43.6865 54.7721 42.0958 54.7721 39.718C54.7721 38.1765 54.3129 36.9138 53.4109 35.9463C52.509 34.9787 51.2299 34.4868 49.59 34.4868C47.7042 34.4868 46.3267 35.0771 45.4411 36.2742L45.4575 36.2578Z" fill="white"/>
</g>
<defs>
<clipPath id="clip0_17715_12">
<rect width="100" height="100" fill="white"/>
</clipPath>
</defs>
</svg>
