<svg width="100" height="100" viewBox="0 0 100 100" fill="none" xmlns="http://www.w3.org/2000/svg">
<g clip-path="url(#clip0_17715_2)">
<path d="M100 50C100 77.6156 77.6156 100 50 100C22.3844 100 0 77.6156 0 50C0 22.3844 22.3844 0 50 0C77.6156 0 100 22.3844 100 50Z" fill="#E9B36C"/>
<path d="M56.0512 68.7602H47.8846V40.7674H38.3405V35.3394C40.8659 35.2246 42.6205 35.0606 43.6373 34.8311C45.2444 34.4703 46.5563 33.7651 47.5566 32.6992C48.2453 31.9777 48.7701 30.9937 49.1309 29.7802C49.3277 29.0587 49.4425 28.5175 49.4425 28.1567H56.084V68.7438L56.0512 68.7602Z" fill="white"/>
</g>
<defs>
<clipPath id="clip0_17715_2">
<rect width="100" height="100" fill="white"/>
</clipPath>
</defs>
</svg>
