<svg width="100" height="100" viewBox="0 0 100 100" fill="none" xmlns="http://www.w3.org/2000/svg">
<g clip-path="url(#clip0_17715_7)">
<path d="M100 50C100 77.6156 77.6156 100 50 100C22.3844 100 0 77.6156 0 50C0 22.3844 22.3844 0 50 0C77.6156 0 100 22.3844 100 50Z" fill="#48879A"/>
<path d="M54.6081 36.4382C53.6569 35.3067 52.2958 34.7327 50.5248 34.7327C48.0978 34.7327 46.4415 35.6346 45.5723 37.4549C45.064 38.5044 44.7688 40.1607 44.6704 42.4402H36.9138C37.0449 38.98 37.6681 36.1922 38.7832 34.0768C40.9151 30.0263 44.6868 27.9928 50.1148 27.9928C54.4113 27.9928 57.8223 29.1899 60.3641 31.5677C62.9059 33.9456 64.1686 37.0941 64.1686 41.0135C64.1686 44.0144 63.2667 46.6875 61.4792 49.0161C60.2985 50.5576 58.3634 52.2958 55.6904 54.1981L52.4926 56.4611C50.492 57.8878 49.1309 58.9046 48.3929 59.5441C47.655 60.1837 47.0318 60.9216 46.5235 61.758H64.2506V68.7931H36.4546C36.5366 65.8741 37.1597 63.2175 38.3241 60.8068C39.4556 58.101 42.145 55.2312 46.3923 52.2139C50.0656 49.59 52.4434 47.7042 53.5258 46.5563C55.182 44.7852 56.0184 42.8337 56.0184 40.7347C56.0184 39.0128 55.5428 37.5861 54.5917 36.4546L54.6081 36.4382Z" fill="white"/>
</g>
<defs>
<clipPath id="clip0_17715_7">
<rect width="100" height="100" fill="white"/>
</clipPath>
</defs>
</svg>
