<?xml version="1.0" encoding="UTF-8"?>
<svg data-bbox="1.13 1.13 123 128.748" viewBox="0 0 125.26 129.87" xmlns="http://www.w3.org/2000/svg" data-type="ugc">
    <g>
        <defs>
            <clipPath id="4f6bc6f6-ddb8-4a0b-b7bb-539fb24e00d9">
                <path d="M29.7 10.68c9.52-6.05 20.82-9.55 32.93-9.55 33.97 0 61.5 27.53 61.5 61.5s-27.53 61.5-61.5 61.5-61.5-27.53-61.5-61.5c0-11.26 3.03-21.81 8.31-30.89"/>
            </clipPath>
        </defs>
        <g>
            <path fill="#bedacd" d="M117.84 62.63c0 30.492-24.718 55.21-55.21 55.21S7.42 93.122 7.42 62.63 32.138 7.42 62.63 7.42s55.21 24.718 55.21 55.21"/>
            <g clip-path="url(#4f6bc6f6-ddb8-4a0b-b7bb-539fb24e00d9)">
                <path d="M61.98 25.61c-3.09-3.97-9.35-4.29-13.73-1.81s-7.18 7.03-9.17 11.65c-1.39 3.21-2.49 6.64-2.32 10.13.18 3.49 1.85 7.07 4.91 8.76-3.05.5-5.36 3.77-4.81 6.81.55 3.05 3.85 5.3 6.89 4.7.46 5 2.82 9.8 6.49 13.22-2.7 5.65-8.92 8.57-13.33 13.01-4.65 4.68-7.26 11.07-8.44 17.56-1.19 6.49-1.06 13.13-.93 19.73 0 .11 36.13.02 39.49.04 9.43.07 18.6-.64 28.03-1.06.39-.02.8-.04 1.14-.24 1.2-.72 1.18-5.7 1.16-6.95-.03-1.79-.72-3.24-1.13-4.94-1.34-5.54-.62-11.22-2.56-16.75-.68-1.94-1.66-3.91-3.16-5.36-1.33-1.29-3.01-2.1-4.62-2.97-1.27-.69-3.61-1.05-4.52-2.05-1.31-1.45-1.31-3.45-2.92-4.66-.42-.32-4.53-2.77-4.41-2.89 4.35-4.41 7.1-10.36 7.65-16.53 2.92 1.38 6.88-.49 7.68-3.63.79-3.13-1.81-6.66-5.04-6.84 1.13-1.69 2.22-3.74 2.62-5.75.32-1.59-.05-3.22-.01-4.86.09-3.92.05-7.79-2.02-11.26-2.57-4.31-6.84-7.51-11.61-9.01-2.26-.71-3.9-.9-6.09-.1-.48.18-5.57 1.63-5.24 2.05" fill="#ffffff"/>
                <path d="M68.07 26.8c-1.58.18-3.13.63-4.56 1.32-.18.09-2.69-1.18-3.13-1.28-1.38-.32-2.81-.36-4.21-.2-2.56.29-5.02 1.39-7.31 2.53-4.61 2.29-7.88 7.98-10.97 12.01-.65.85-1.33 1.78-1.35 2.86-.01.76.31 1.48.62 2.17s4.13 10.42 5.27 9.85c3.77-4.72 6.93-10.03 10.54-14.9 1.13-1.52 2.36-3.13 4.15-3.77 1.78-.64 4.23.2 4.53 2.07 1.61-1.87 4.34-2.69 6.72-2.02 5.78 1.64 7.55 11.43 6.8 16.42.03-.22 5.32-1.21 5.78-1.08 1.24.35 2.34 1.1 3.59 1.42s2.84 0 3.34-1.18c.28-.66.15-1.41.01-2.12-1.65-8.58-3.55-19.44-12.75-23.17-2.23-.91-4.69-1.22-7.07-.94Z" fill="#e8d575"/>
                <path d="M55.57 97.18c-.32-2.49-.83-4.92-2-7.05-1.18-2.15-3.41-3.9-5.86-3.78s-4.68 2.72-3.85 5.02c-3.04-.11-6.09 1.34-7.93 3.77-3.07 4.06-3.02 10.1-3.67 14.95-.21 1.56-2.33 18.64-2.5 18.63 21.75 1.6 43.61 1.54 65.35-.17.68-5.14 1.36-10.33.84-15.49-.4-3.99-1.63-7.92-3.89-11.25-2.51-3.69-6.22-5.63-9.63-8.34-2.44-1.94-4.63-4.54-4.91-7.65-.38 2.33-3.14 2.37-4.82 3.15-2.36 1.1-3.07 2.92-3.61 5.4-1.94 8.87-3.87 17.75-5.81 26.61.61-2.9-3.43-6.28-4.54-8.73-2.09-4.6-2.55-10.14-3.19-15.09Z" fill="#e8d575"/>
                <path d="M62.57 66.26c-.83 0-1.75-.17-2.46-.77-.48-.41-1.03-1.17-.92-2.48A1.1 1.1 0 0 1 60.38 62a1.1 1.1 0 0 1 1.01 1.19c-.04.46.1.58.15.62.34.29 1.34.32 2.31.08.59-.15 1.19.21 1.34.79.15.59-.21 1.19-.79 1.34-.4.1-1.07.24-1.82.24Z" fill="#404040"/>
                <path d="M62.89 84.47c-.28 0-.56 0-.85-.01-6.41-.22-12.06-3.17-15.9-8.3-3.55-4.74-4.29-14.44-3.46-21.96.07-.6.62-1.03 1.22-.97.6.07 1.04.61.97 1.22-.76 6.85-.14 16.16 3.03 20.39 3.43 4.58 8.48 7.21 14.21 7.41 5.76.21 10.64-1.87 13.76-5.84 3.53-4.49 5.49-14.36 4.45-22.47-.08-.6.35-1.15.95-1.23.6-.07 1.15.35 1.23.95 1.12 8.77-.99 19.13-4.91 24.11-3.41 4.34-8.62 6.69-14.72 6.69Z" fill="#404040"/>
                <path d="M42.39 66.97c-.05 0-.1 0-.16-.01-3.31-.47-5.63-2.29-6.38-4.98-.7-2.51.15-5.45 2.02-6.97 1.45-1.19 3.28-1.36 5.02-.47a1.1 1.1 0 1 1-1 1.96c-.97-.49-1.85-.42-2.63.21-1.2.98-1.76 2.99-1.29 4.68.51 1.84 2.14 3.05 4.57 3.4.6.09 1.02.64.93 1.25-.08.55-.55.94-1.09.94Z" fill="#404040"/>
                <path d="M82.93 66.55c-.57 0-1.05-.44-1.1-1.02-.05-.61.41-1.13 1.01-1.18 2.31-.17 3.93-1.21 4.56-2.91.55-1.48.2-3.25-.84-4.3-1.04-1.04-2.62-1.25-4.43-.58-.57.21-1.2-.08-1.41-.65s.08-1.2.65-1.41c2.63-.97 5.09-.57 6.75 1.09s2.2 4.32 1.35 6.62c-.94 2.52-3.29 4.1-6.46 4.34z" fill="#404040"/>
                <path d="M62.64 75.46c-2.48 0-4.71-1.52-5.83-3.97-.02-.03-.03-.07-.05-.11a.92.92 0 0 1 1.22-1.21c.71.1 3.99.06 5.97.04 2.12-.02 3.34-.04 3.74 0 .29.03.55.2.69.45.15.25.16.56.05.82-1.05 2.43-3.26 3.95-5.77 3.96h-.02Zm-3.31-3.39c.86.99 2.02 1.56 3.31 1.56h.02c1.3 0 2.49-.59 3.33-1.6-.61 0-1.33.01-2.01.02-2.14.03-3.61.04-4.64.02Z" fill="#404040"/>
                <path d="M27.73 129.62c-.33 0-.65-.15-.86-.4-.39-.46-.56-.67.71-13.1.61-6.02 1.32-12.25 1.44-12.93 1.55-8.62 5.82-11.37 10.76-14.55.6-.39 1.21-.78 1.84-1.2a1.1 1.1 0 0 1 1.53.31c.34.51.2 1.19-.31 1.53-.64.42-1.26.83-1.87 1.22-4.88 3.14-8.4 5.41-9.78 13.09-.33 1.85-2.49 22.38-2.41 24.59q.06.165.06.36c0 .61-.49 1.1-1.1 1.1Zm.01-2.2" fill="#404040"/>
                <path d="M96.66 128.24c-.61 0-1.1-.49-1.1-1.1-.01-5.17-.1-10.71-.63-16.14-.06-.61.38-1.14.99-1.2a1.1 1.1 0 0 1 1.2.99c.53 5.52.62 11.12.64 16.35 0 .61-.49 1.1-1.1 1.1" fill="#404040"/>
                <path d="M95.62 106.27c-.52 0-.98-.37-1.08-.89-.41-2.11-.89-4.06-1.44-5.81-1.4-4.5-4.63-6.21-8.72-8.38-1.14-.6-2.32-1.23-3.52-1.95-.52-.31-.69-.99-.38-1.51s.99-.69 1.51-.38c1.15.69 2.3 1.3 3.42 1.89 4.18 2.21 8.13 4.3 9.8 9.67.57 1.83 1.07 3.86 1.5 6.04.12.6-.27 1.17-.87 1.29-.07.01-.14.02-.21.02Z" fill="#404040"/>
                <path d="M35.47 46.22a1.105 1.105 0 0 1-.91-1.73c2.3-3.32 3.3-6.06 4.68-9.86l.24-.66c1.47-4.02 3.02-6.72 6.96-9.41 4.62-3.16 11.69-4.24 16.09-.9 2.4-1.72 5.4-2.6 8.35-2.43 4.01.23 8.71 2.97 11.59 5.59 4.51 4.1 5.27 9.3 5.62 13.84.05.61-.41 1.14-1.01 1.18-.6.05-1.13-.41-1.18-1.01-.39-5.11-1.38-9.18-4.9-12.38-2.59-2.35-6.76-4.82-10.23-5.02-2.71-.15-5.47.75-7.55 2.49-.43.36-1.05.34-1.46-.05-3.45-3.26-9.99-2.28-14.06.51-3.47 2.37-4.79 4.67-6.13 8.35l-.24.66c-1.39 3.8-2.48 6.81-4.94 10.36-.21.31-.56.47-.91.47Z" fill="#404040"/>
                <path d="M55.7 54.5c-.11.9-.92 1.55-1.83 1.44-.9-.11-1.55-.92-1.44-1.83.11-.9.93-1.55 1.83-1.44s1.55.93 1.44 1.83" fill="#404040"/>
                <path d="M72.75 54.5c-.11.9-.92 1.55-1.83 1.44-.9-.11-1.55-.92-1.44-1.83.1-.9.93-1.55 1.83-1.44s1.55.92 1.44 1.83" fill="#404040"/>
                <path d="M77.1 54.48c-.26 0-.52-.09-.73-.28-2.65-2.34-3.44-4.92-3.86-8.34-.26-2.1-1.01-4.88-3.14-6.12-1.1-.64-2.83-.59-3.51.45-.33.51-1.02.65-1.52.31-.51-.33-.65-1.02-.31-1.52 1.4-2.12 4.47-2.3 6.46-1.13 2.91 1.7 3.9 5.16 4.21 7.76.36 2.97.99 5.07 3.13 6.95a1.095 1.095 0 0 1-.73 1.92" fill="#404040"/>
                <path d="M41.6 55.37c-.41 0-.79-.23-.98-.6a1.11 1.11 0 0 1 .3-1.37 33.7 33.7 0 0 0 8.19-9.32l.45-.78c.83-1.45 1.7-2.95 3.06-4.1 1.74-1.46 4.55-2.16 6.58-.65a1.101 1.101 0 0 1-1.31 1.77c-1.05-.78-2.79-.33-3.85.57-1.07.9-1.79 2.17-2.57 3.51-.15.27-.31.54-.46.8-1.89 3.2-4.24 6.05-7.01 8.5.1.55-.23 1.09-.78 1.25l-1.32.38c-.1.03-.2.04-.3.04" fill="#404040"/>
                <path d="M41.51 57.58c-.55 0-1.03-.41-1.09-.98-.23-1.98-.59-4.16-2.04-5.1-.15-.1-.32-.19-.49-.27-.49-.26-1.1-.58-1.54-1.18-.49-.66-.57-1.64-.19-2.39.32-.63.9-1.02 1.58-1 .61 0 1.1.5 1.09 1.11 0 .46-.29.85-.69 1.01.14.16.44.32.76.49.22.12.44.23.64.37 2.46 1.58 2.84 4.91 3.04 6.7a1.1 1.1 0 0 1-.97 1.22h-.13Z" fill="#404040"/>
                <path d="M81.94 58.24c-.25 0-.5-.08-.71-.26-.46-.39-.52-1.09-.13-1.55l4.65-5.51c.28-.33.6-.71.67-1.04.07-.35-.11-.84-.31-1.35-.06-.15-.11-.3-.17-.45-.5-1.45-.3-2.73.56-3.49.45-.4 1.15-.36 1.55.09s.36 1.15-.09 1.55c-.12.11-.14.57.06 1.13.05.13.1.27.15.4.27.71.6 1.59.41 2.55-.17.88-.74 1.55-1.14 2.03l-4.65 5.51c-.22.26-.53.39-.84.39Z" fill="#404040"/>
                <path d="M51.12 85.41a1.096 1.096 0 0 1-.56-2.04 5.8 5.8 0 0 0 2.17-2.36 1.1 1.1 0 1 1 1.96 1 8.05 8.05 0 0 1-3 3.25c-.18.11-.37.16-.57.16Z" fill="#404040"/>
                <path d="M75.27 85.62c-.12 0-.25-.02-.37-.07a7.08 7.08 0 0 1-3.82-3.34c-.28-.54-.07-1.2.47-1.48s1.2-.07 1.48.47c.55 1.05 1.5 1.88 2.61 2.29.57.21.87.84.66 1.41-.16.45-.58.73-1.03.73Z" fill="#404040"/>
                <path d="M61.4 122.06h-.03c-.61-.01-1.09-.52-1.07-1.13.12-5.16-1.2-9.53-2.61-14.15-.5-1.63-1.01-3.32-1.47-5.09-.34-1.29-.34-2.53-.34-3.73 0-.89 0-1.74-.15-2.53-.15-.8-.66-1.57-1.19-2.39-.54-.81-1.09-1.66-1.4-2.66-.16-.51-.23-1-.3-1.47-.09-.64-.17-1.2-.46-1.64-.28-.42-1.01-.92-1.72-1.4-1.59-1.08-3.77-2.55-3.08-5.02.35-1.26 1.56-2.2 2.87-2.23.6 0 1.11.47 1.13 1.07.02.61-.46 1.11-1.07 1.13-.35 0-.71.29-.8.62-.24.88.67 1.57 2.2 2.61.93.63 1.81 1.22 2.33 2.02.56.85.68 1.74.8 2.53.06.4.11.78.22 1.12.22.71.67 1.39 1.14 2.11.64.97 1.29 1.97 1.52 3.2.18.99.18 1.97.19 2.92 0 1.11 0 2.15.27 3.17.45 1.73.96 3.4 1.45 5.01 1.46 4.8 2.83 9.33 2.7 14.84-.01.6-.5 1.07-1.1 1.07Z" fill="#404040"/>
                <path d="M64.91 114.7h-.14c-.6-.08-1.03-.63-.95-1.23l2.36-18c.34-2.6.85-5.28 2.92-6.93.83-.66 1.77-1.03 2.67-1.38.6-.23 1.16-.45 1.65-.74.61-.36 1.13-1.03 1.24-1.61.07-.36-.03-.56-.11-.67a1.101 1.101 0 0 1 1.77-1.31c.51.69.68 1.52.5 2.42-.24 1.19-1.14 2.39-2.28 3.07-.65.38-1.32.65-1.97.9-.79.31-1.53.6-2.1 1.05-1.44 1.14-1.82 3.25-2.11 5.5l-2.36 18c-.07.55-.55.96-1.09.96Z" fill="#404040"/>
                <path d="M48.4 99.84c-.24 0-.48-.08-.67-.23-1.51-1.17-3.07-2.38-4.3-3.98-1.46-1.89-2.14-4.02-1.92-5.98.3-2.67 2.17-4.77 3.9-6.53.36-.36.55-.72.75-1.1.37-.69.83-1.56 2.19-2.05a1.102 1.102 0 0 1 .75 2.07c-.56.2-.68.42-.99 1.01-.24.45-.54 1.02-1.12 1.61-1.54 1.56-3.06 3.25-3.28 5.23-.21 1.89.83 3.57 1.47 4.4.75.98 1.71 1.83 2.7 2.63a17.2 17.2 0 0 1 2.89-4.79c.36-.42 1.02-.74 1.39-.89a1.1 1.1 0 0 1 1.44.6 1.1 1.1 0 0 1-.6 1.44c-.33.14-.53.27-.58.31a15 15 0 0 0-2.95 5.46 1.09 1.09 0 0 1-1.06.79Z" fill="#404040"/>
                <path d="M61.59 95.66c-1.52 0-3.03-.39-4.33-1.19-.52-.32-.68-1-.36-1.51.32-.52 1-.68 1.51-.36 2.29 1.41 5.6 1.05 7.54-.82.44-.42 1.13-.41 1.56.03.42.44.41 1.13-.03 1.56-1.57 1.51-3.73 2.3-5.89 2.3Z" fill="#404040"/>
                <path d="M75.29 100.23c-.06 0-.12 0-.18-.01-.38-.06-.7-.32-.84-.68l-2.14-5.32c-.15-.37-.33-.83-.56-1-.07-.06-.22-.02-.26 0-.58.2-1.2-.1-1.4-.68-.2-.57.1-1.2.68-1.4.84-.29 1.69-.17 2.35.35.69.54 1.01 1.33 1.24 1.91l1.49 3.72c.12-.13.25-.25.38-.38 1.71-1.72 4.3-4.32 4.27-6.15-.04-2.06-3.14-6.66-4.74-7.46-.61-.31-.84-.6-1.02-.88-.05-.07-.06-.09-.2-.18a1.104 1.104 0 1 1 1.16-1.88c.51.32.72.6.88.84.01.03.05.06.16.12 2.45 1.23 5.89 6.67 5.95 9.38.05 2.77-2.7 5.53-4.91 7.75-.57.58-1.12 1.12-1.48 1.55-.21.25-.52.39-.84.39Z" fill="#404040"/>
            </g>
            <path d="M29.7 10.68c9.52-6.05 20.82-9.55 32.93-9.55 33.97 0 61.5 27.53 61.5 61.5s-27.53 61.5-61.5 61.5-61.5-27.53-61.5-61.5c0-11.26 3.03-21.81 8.31-30.89" fill="none" stroke="#404040" stroke-linecap="round" stroke-miterlimit="10" stroke-width="2.26"/>
        </g>
    </g>
</svg>
