<?xml version="1.0" encoding="UTF-8"?>
<svg data-bbox="1.13 1.13 123 123.006" viewBox="0 0 125.26 125.26" xmlns="http://www.w3.org/2000/svg" data-type="ugc">
    <g>
        <defs>
            <clipPath id="70bef6e3-97a9-4da4-9179-2116ed0838fc">
                <path d="M29.7 10.68c9.52-6.05 20.82-9.55 32.93-9.55 33.97 0 61.5 27.53 61.5 61.5s-27.53 61.5-61.5 61.5-61.5-27.53-61.5-61.5c0-11.26 3.03-21.81 8.31-30.89"/>
            </clipPath>
        </defs>
        <g>
            <path fill="#bedacd" d="M117.84 62.63c0 30.492-24.718 55.21-55.21 55.21S7.42 93.122 7.42 62.63 32.138 7.42 62.63 7.42s55.21 24.718 55.21 55.21"/>
            <g clip-path="url(#70bef6e3-97a9-4da4-9179-2116ed0838fc)">
                <path d="M65.37 24.64c-2.69-.22-5.15-1-7.95-.6-5.68.81-11.08 4.02-14.2 8.89-3.52 5.5-4.11 12.29-4.9 18.77-.78 6.48-2.03 13.33-6.45 18.13 3.54 5.02 9.75 8.03 15.88 7.7 1.42-.08 2.86-.32 4.27-.1 1.41.21 2.85 1.01 3.32 2.36.58 1.65-.56 3.54-2.14 4.3-1.58.77-3.43.66-5.16.35-1.19-.21-4.82 6.55-5.68 7.48-2.21 2.38-4.04 4.33-4.9 7.47-.52 1.88-4.36 24.23-3.87 24.23 19.67-.09 39.34-.17 59-.26.67-6.46-.36-13.07-2.85-19.06-2.15-5.17-4.18-11.08-9-14.38-.83-.57-1.73-1.07-2.36-1.85-.99-1.2-.67-3.25-.43-4.69-2.13.17-4.24.64-6.25 1.4-1.63.61-2.09-2-2.45-2.9-.32-.8-.54-1.73-.15-2.5.43-.84 1.48-1.21 2.42-1.12 1.05.11 1.88.68 2.9.73.98.04 2.21-.36 3.17-.56 2.17-.44 4.3-1.06 6.37-1.83 2.07-.78 4.08-1.72 6-2.81.57-.33 4.97-3.64 5.23-3.51-4.18-2.13-6.28-6.98-6.96-11.62s-.29-9.41-1.11-14.03c-.71-3.97-2.4-8.45-5.22-11.42-2.27-2.38-4.29-5.35-7.19-6.99-2.93-1.66-5.5-1.4-8.67-1.53-.22 0-.45-.02-.67-.04Z" fill="#ffffff"/>
                <path d="M38.71 48.44c-1.35 3.47-1.19 6.1-1.86 9.78-.82 4.51.47 9.44-7.54 10.91 5.61 5.53 13.6 8.57 21.47 8.14-.51.03-4.95-8.8-6.4-9.97-2.43-1.97-7.32-3.29-6.86-7.25.34-2.94 4.39-7.39 6.88-4.98-.77-.75 1.83-6.36 2.15-7.25 3.45-1.2 6.9-2.4 10.35-3.61-1.85-1.26-2.88-3.62-2.54-5.83 5.04 4.97 10.68 5.25 16.94 7.43 2.15.75 4.67 1.82 6.05 3.64 1.36 1.79 1.03 4.47 3.3 5.65 1.04.54 2.54-.03 3.92.99 1.39 1.03 2.37 2.39 2.48 4.15.21 3.3-2.57 4.77-5.37 4.6a31.26 31.26 0 0 1-8.95 13.72 49.3 49.3 0 0 0 22.23-10.92c-2.51 2.17-5.36-5.53-5.36-6.85.02-4.11-.37-5.89-2.57-9.72-3.89-6.79-7.04-14.63-12.82-20.1-1.25-1.18-3.74-2.72-5.38-3.08-.72-.16-7.44.43-7.43 1.04-.08-4.44-7.85-2.73-10.17-1.33-4.75 2.87-5.43 7.81-8.15 12-1.63 2.52-3.09 5.58-4.36 8.84Z" fill="#e8d575"/>
                <path d="M33.87 123.7c1.48-9.98.79-19.3 6.59-27.86.87-1.29 5.72-10.23 6.95-10.23 1.84.47 3.67.94 5.51 1.42 1.95 10.14 3.93 20.36 7.88 29.9 4.73-7.91 7.08-21.33 13.11-30.34 2.2 1.89 12.66 11.9 13.84 16.77 1.68 6.92 2.1 13.84 2.31 19.92-2.85 1.92-41.15-.06-56.19.42" fill="#e8d575"/>
                <path d="M62.8 80.94c-.26 0-.53 0-.79-.01-6.05-.2-11.39-2.79-15.02-7.3-3.68-4.56-4.55-13.49-3.27-19.49.12-.58.69-.95 1.27-.82.58.12.95.69.82 1.27-1.32 6.18-.04 14.12 2.84 17.7 3.23 4.01 8 6.32 13.42 6.5 5.43.18 10.06-1.64 13-5.12 2.99-3.53 5.88-10.77 4.2-19.56a1.069 1.069 0 1 1 2.1-.4c1.82 9.53-1.37 17.46-4.67 21.35-3.23 3.81-8.15 5.89-13.91 5.89Z" fill="#404040"/>
                <path d="M43.46 65.87c-.05 0-.1 0-.15-.01-3.14-.45-5.34-2.17-6.05-4.73-.66-2.39.14-5.17 1.91-6.62 1.38-1.13 3.12-1.29 4.78-.45.53.27.73.91.47 1.44-.27.53-.91.74-1.44.47-.9-.46-1.73-.39-2.45.2-1.13.92-1.65 2.81-1.21 4.38.48 1.73 2.01 2.86 4.3 3.19.58.08.99.63.91 1.21-.08.53-.53.92-1.06.92Z" fill="#404040"/>
                <path d="M81.76 65.48c-.55 0-1.02-.43-1.07-.99-.04-.59.4-1.1.99-1.15 2.17-.16 3.69-1.13 4.28-2.73.52-1.39.19-3.04-.79-4.03-.98-.98-2.45-1.17-4.15-.54-.55.2-1.17-.08-1.37-.63s.08-1.17.63-1.37c2.49-.92 4.83-.54 6.41 1.04s2.09 4.1 1.28 6.28c-.89 2.39-3.12 3.89-6.13 4.12z" fill="#404040"/>
                <path d="M73.88 80.16c-.54 0-1-.41-1.06-.96-.06-.59.36-1.11.95-1.18 8.2-.86 14.3-3.59 19.03-8.54-5.36-1.67-5.67-8.89-5.88-13.84l-.03-.68c-.29-6.46-2.33-13.86-5.59-20.32-1.22-2.42-5.81-10.25-13.3-9.43-1.78.2-3.59-.02-5.35-.23-1.77-.21-3.43-.41-5.03-.22-7.09.85-11.21 5.83-14.3 10.6-.32.5-.98.64-1.48.32s-.64-.98-.32-1.48c3.36-5.18 7.87-10.6 15.85-11.56 1.85-.22 3.72 0 5.54.22 1.71.2 3.33.4 4.87.23 5.99-.66 11.76 3.3 15.45 10.59 3.4 6.72 5.52 14.44 5.82 21.19l.03.68c.29 6.73.9 11.9 5.87 12.13.41.02.77.27.93.64s.1.8-.16 1.12c-5.28 6.3-12.18 9.7-21.71 10.71h-.11Z" fill="#404040"/>
                <path d="M43.97 78.61h-.09c-2.03-.16-3.93-1.29-5.68-2.49-1.69-1.15-2.87-2.14-4.02-3.09-1.16-.96-2.25-1.87-3.86-2.97a1.08 1.08 0 0 1-.45-1.06c.07-.41.37-.75.77-.85 5.69-1.55 6.14-8.8 6.59-15.81.2-3.22.39-6.26 1.1-8.71.16-.57.76-.9 1.32-.73.57.16.9.75.73 1.32-.64 2.23-.82 5.16-1.02 8.26-.42 6.67-.89 14.14-6.23 16.98.9.68 1.66 1.31 2.41 1.93 1.16.96 2.25 1.87 3.86 2.97 1.44.98 3.11 2 4.65 2.12.59.05 1.03.56.98 1.15-.04.56-.51.98-1.07.98Z" fill="#404040"/>
                <path d="M54.09 83.99c-.27 0-.54-.1-.75-.31-.42-.41-.42-1.09 0-1.51 1.07-1.08 1.24-2.9 1.26-3.63.02-.59.51-1.03 1.11-1.03.59.02 1.05.51 1.03 1.11-.04 1.22-.34 3.51-1.88 5.07-.21.21-.49.32-.76.32Z" fill="#404040"/>
                <path d="M71.78 87.16c-.39 0-.78-.22-.96-.6-.2-.41-.44-.85-.69-1.31-1-1.83-2.12-3.89-2-5.96.03-.59.53-1.04 1.13-1.01.59.03 1.04.54 1.01 1.13-.08 1.46.89 3.24 1.75 4.81.27.49.52.95.73 1.39a1.07 1.07 0 0 1-.96 1.54Z" fill="#404040"/>
                <path d="M33.64 123.43c-.07 0-.14 0-.22-.02-.52-.11-.89-.58-.85-1.11.05-.87.2-1.68.34-2.47.13-.69.24-1.35.3-2.03.25-2.99.68-5.93 1.1-8.77l.25-1.74c.08-.59.63-.99 1.21-.91s.99.63.91 1.21l-.26 1.75c-.41 2.81-.84 5.72-1.08 8.64-.07.78-.2 1.51-.33 2.23-.07.39-.14.76-.19 1.14.06.19.07.4 0 .61-.02.07-.03.14-.04.21-.03.16-.07.36-.14.57-.15.43-.56.71-1.01.71Z" fill="#404040"/>
                <path d="M60.23 113.84c-.4 0-.79-.23-.97-.62-1.33-2.85-1.81-5.9-2.28-8.85-.15-.98-.31-1.99-.5-2.98-.28-1.47-.64-2.97-.98-4.41-.64-2.71-1.31-5.5-1.56-8.38q-.12-1.39-1.43-1.76c-.29-.08-.61-.18-.98-.29l-.29-.09c-1.52-.48-4.07-1.29-4.59-3.34-.14-.57.2-1.15.77-1.3s1.15.2 1.3.77c.23.89 2.13 1.5 3.16 1.82l.31.1c.34.11.64.2.91.27 1.74.5 2.73.91 2.97 3.63s.88 5.44 1.51 8.07c.35 1.47.71 2.98 1 4.51.19 1.02.36 2.05.51 3.05.46 2.93.9 5.7 2.1 8.27.25.54.02 1.17-.52 1.42-.15.07-.3.1-.45.1Z" fill="#404040"/>
                <path d="M36.41 102.55c-.05 0-.1 0-.16-.01-.58-.09-.99-.63-.9-1.21.67-4.6 3.61-7.86 6.2-10.74.51-.57 1.11-1.12 1.74-1.71.81-.74 1.64-1.51 2.29-2.32.37-.46 1.04-.53 1.5-.16s.53 1.04.16 1.5c-.75.93-1.64 1.75-2.5 2.55-.6.55-1.16 1.07-1.61 1.57-2.5 2.78-5.09 5.66-5.67 9.62-.08.53-.54.92-1.06.92Z" fill="#404040"/>
                <path d="M92.25 122.46c-.53 0-.99-.39-1.06-.93-.15-1.14-.29-2.33-.43-3.56-1.23-10.49-2.75-23.55-12.37-28.77a1.07 1.07 0 0 1 1.02-1.88c10.59 5.76 12.19 19.42 13.48 30.4.14 1.21.28 2.4.43 3.53.08.59-.34 1.12-.92 1.2h-.14Z" fill="#404040"/>
                <path d="M62.96 116.38c-.14 0-.28-.03-.41-.08-.54-.23-.8-.86-.57-1.4 1.26-3.01 2.09-6.32 2.89-9.51.38-1.54.78-3.12 1.22-4.67.67-2.34 1.28-4.74 1.81-7.12.14-.62.24-1.22.34-1.8.33-1.97.64-3.82 2.36-5.74 2.08-2.32 4.81-3.82 7.3-4.01.5-.03.95.27 1.1.74l.04.15c.41 1.47-.16 2.76-.57 3.7a1.07 1.07 0 0 1-1.96-.86c.23-.53.42-.99.5-1.42-1.91.5-3.69 1.87-4.81 3.12-1.31 1.46-1.53 2.8-1.84 4.67-.1.61-.21 1.23-.36 1.91-.54 2.42-1.16 4.85-1.84 7.24-.43 1.51-.82 3.08-1.2 4.6-.82 3.27-1.66 6.65-2.99 9.82-.17.41-.57.66-.99.66Z" fill="#404040"/>
                <path d="M62.63 65.55c-.79 0-1.67-.17-2.34-.73-.46-.39-.99-1.11-.88-2.37.05-.59.57-1.03 1.15-.98.59.05 1.03.56.98 1.15-.03.42.09.52.13.56.32.27 1.24.3 2.15.07a1.07 1.07 0 0 1 .53 2.07c-.38.1-1.02.23-1.73.23Z" fill="#404040"/>
                <path d="M79.23 54.73c-.47 0-.89-.31-1.03-.78-.67-2.34-2.36-5.92-4.02-6.53-1.84-.67-3.94-.88-5.97-1.08-2.68-.26-5.55-.55-7.88-2.03.26.44.16 1.02-.25 1.36s-.99.32-1.38-.01c-.72-.16-3.08.44-7.01 1.8-.54.19-.97.34-1.23.41-.57.17-1.16-.15-1.33-.72s.15-1.16.72-1.33c.24-.07.65-.21 1.15-.39 2.91-1 4.93-1.6 6.34-1.82-.86-1.72-1.23-3.68-1.03-5.62.05-.51.47-.92.98-.96.52-.04.99.29 1.12.79 1.47 5.54 5.24 5.91 10.02 6.38 2.16.21 4.39.43 6.5 1.2 3.39 1.25 5.26 7.68 5.33 7.95a1.07 1.07 0 0 1-1.03 1.36Z" fill="#404040"/>
                <path d="M56.03 54.93c-.1.85-.87 1.46-1.73 1.37a1.555 1.555 0 1 1 .37-3.09c.85.1 1.46.87 1.36 1.72" fill="#404040"/>
                <path d="M72.13 54.93c-.1.85-.87 1.47-1.73 1.36-.85-.1-1.46-.87-1.36-1.73.1-.85.87-1.46 1.73-1.37.85.1 1.46.87 1.36 1.73Z" fill="#404040"/>
                <path d="M63.09 97.75q-.495 0-.99-.06a8.93 8.93 0 0 1-5.73-3.05c-.38-.45-.33-1.12.12-1.51s1.12-.33 1.51.12a6.78 6.78 0 0 0 4.35 2.31 6.84 6.84 0 0 0 4.76-1.26c.48-.35 1.15-.25 1.5.23s.25 1.15-.23 1.5a8.96 8.96 0 0 1-5.28 1.72Z" fill="#404040"/>
                <path d="M62.75 71.98c-1.82 0-3.41-.61-4.28-1.65a.89.89 0 0 1 .11-1.26.9.9 0 0 1 1.26.11c.52.62 1.63 1.01 2.91 1.01h.03c1.24 0 2.34-.38 2.81-.96a.9.9 0 0 1 1.26-.13c.38.31.44.87.13 1.25-.82 1-2.38 1.6-4.18 1.61h-.04Z" fill="#404040"/>
            </g>
            <path d="M29.7 10.68c9.52-6.05 20.82-9.55 32.93-9.55 33.97 0 61.5 27.53 61.5 61.5s-27.53 61.5-61.5 61.5-61.5-27.53-61.5-61.5c0-11.26 3.03-21.81 8.31-30.89" fill="none" stroke="#404040" stroke-linecap="round" stroke-miterlimit="10" stroke-width="2.26"/>
        </g>
    </g>
</svg>
