<?xml version="1.0" encoding="UTF-8"?>
<svg data-bbox="1.13 1.13 123 126.97" viewBox="0 0 125.26 128.08" xmlns="http://www.w3.org/2000/svg" data-type="ugc">
    <g>
        <defs>
            <clipPath id="7309a8df-7bd1-48dc-b5c5-68753bc6c477">
                <path d="M29.7 10.68c9.52-6.05 20.82-9.55 32.93-9.55 33.97 0 61.5 27.53 61.5 61.5s-27.53 61.5-61.5 61.5-61.5-27.53-61.5-61.5c0-11.26 3.03-21.81 8.31-30.89"/>
            </clipPath>
        </defs>
        <g>
            <path fill="#bedacd" d="M117.84 62.63c0 30.492-24.718 55.21-55.21 55.21S7.42 93.122 7.42 62.63 32.138 7.42 62.63 7.42s55.21 24.718 55.21 55.21"/>
            <g clip-path="url(#7309a8df-7bd1-48dc-b5c5-68753bc6c477)">
                <path d="M66.06 24.75c-4.52-2.5-10.36-1.66-14.74 1.08s-7.5 7.11-9.92 11.68c-3.42 6.46-5.7 13.75-5.05 21.03.64 7.28 4.57 14.51 11.07 17.86 2.98 1.54 6.81 2.68 7.73 5.9.91 3.19-1.26 5.14-3.58 6.68-3.77 2.5-8.09 4.87-11.06 8.32-2.7 3.14-4.58 6.93-5.78 10.87-1.86 6.1-2.22 12.55-2.56 18.92 9.49.25 57.1-.91 62.42-.47-.45-1.88 0-3.78-.24-5.72-.35-2.81-1.1-5.57-2.18-8.19-1.87-4.41-1.88-8.96-4.7-12.99-2.06-2.94-3.88-4.3-6.99-6.14-2.78-1.65-14.54-8.21-9.54-12.57.9-.78 2.78-1.23 3.86-2.01 1.12-.81 2.15-1.75 3.1-2.75.67-.71 1.31-1.46 2.12-2.01 1.6-1.08 2.91-.3 4.29-1.73 1.39-1.44 2.47-3.44 3.35-5.23 1.73-3.5 2.71-7.38 2.71-11.29 0-6.06-2.08-11.92-4.43-17.5-1.67-3.96-3.55-7.95-6.67-10.91-3.11-2.96-7.73-4.69-11.79-3.32l-1.41.48Z" fill="#ffffff"/>
                <path d="M38.36 49.65c-1.07 2.77-3.28 6.86-3.15 9.87.2 4.64 2.32 8.44 5.23 11.94.97 1.16 3.2 4.53 4.85 4.64 2.69.19 2.53-2.48 1.51-4.42-1.71-3.26-6.07-3.29-8.33-6.04-2.72-3.32 1-10.8 4.99-6.87-.54-3.13 2.42-5.24 4.11-7.42 1.85-2.4 4.31-4.4 6.49-6.5 2.32-2.24 3.73 1.73 5.22 3.14 1.05 1 2.24 1.86 3.52 2.55.43.23 3.8 1.27 3.86 1.46-.22-.77-.45-1.58-.29-2.36.16-.79.82-1.53 1.62-1.49.35.02.68.18 1 .35 2.11 1.08 4.22 2.17 6.34 3.25 1.64.84 3.26 1.73 4.64 2.97.92.83 1.65 1.74 2.89 2.09 1.68.47 3.14.11 4.58 1.34 1.2 1.02 2.04 2.41 2.13 4 .22 3.49-2.72 5.05-5.69 4.87-.91 2.83-1.92 4.57-3.88 6.79 8.1.8 8.96-4.95 9.72-11.1.45-3.69 1.69-7.63-.22-11.02-2.94-5.21-5.55-10.64-9.1-15.47-2.45-3.34-5.34-8.47-9.56-9.58-1.89-.5-3.88-.36-5.83-.22-4.74.35-9.8.77-14.01 3.19-4.59 2.65-5.25 6.4-8 10.66-1.73 2.67-3.28 5.91-4.62 9.36Z" fill="#e8d575"/>
                <path d="M82.13 76.09a1.136 1.136 0 0 1-.6-2.1c6.84-4.19 7.85-11.16 7.91-18.08.07-7.28-3.28-14.37-6.92-20.96-3.97-7.2-8.28-10.44-13.15-9.91-1.88.21-3.81-.02-5.67-.24-1.87-.22-3.64-.43-5.33-.23-7.52.9-11.88 6.18-15.15 11.23-.34.53-1.04.68-1.57.33a1.13 1.13 0 0 1-.33-1.57c3.56-5.49 8.34-11.24 16.78-12.25 1.96-.23 3.94 0 5.87.23 1.82.22 3.53.42 5.16.24 5.89-.65 10.92 2.97 15.39 11.07 3.78 6.86 7.27 14.28 7.2 22.08-.07 7.2-1.19 15.21-9 19.99-.18.11-.39.17-.59.17" fill="#404040"/>
                <path d="M63.49 74.59c-1.93 0-3.62-.65-4.53-1.75-.33-.4-.28-1 .12-1.33s1-.28 1.33.12c.55.66 1.73 1.07 3.08 1.07h.03c1.31 0 2.48-.4 2.98-1.01a.95.95 0 0 1 1.33-.13c.4.33.46.93.13 1.33-.87 1.06-2.52 1.7-4.43 1.71h-.04Z" fill="#404040"/>
                <path d="M63.88 84.09c-.28 0-.56 0-.84-.01-6.42-.21-12.07-2.95-15.91-7.73-3.89-4.83-4.82-14.29-3.46-20.65a1.135 1.135 0 1 1 2.22.48c-1.4 6.55-.05 14.96 3.01 18.75 3.43 4.25 8.48 6.7 14.22 6.89 5.76.19 10.66-1.74 13.78-5.42 3.16-3.74 6.23-11.42 4.45-20.73-.12-.61.29-1.21.9-1.33.62-.12 1.21.29 1.33.9 1.93 10.1-1.46 18.5-4.94 22.62-3.42 4.04-8.63 6.24-14.74 6.24Z" fill="#404040"/>
                <path d="M43.38 68.12c-.05 0-.11 0-.16-.01-3.32-.48-5.66-2.3-6.41-5.01-.7-2.53.15-5.48 2.03-7.01 1.46-1.2 3.31-1.37 5.06-.47.56.29.78.97.49 1.53-.28.56-.97.78-1.53.49-.96-.49-1.83-.42-2.6.21-1.19.98-1.74 2.97-1.28 4.65.51 1.83 2.13 3.03 4.55 3.37.62.09 1.05.66.96 1.28-.08.57-.57.97-1.12.97Z" fill="#404040"/>
                <path d="M83.96 67.7c-.59 0-1.08-.45-1.13-1.05a1.14 1.14 0 0 1 1.05-1.22c2.3-.17 3.91-1.2 4.54-2.89.55-1.47.2-3.23-.84-4.27-1.03-1.04-2.6-1.24-4.4-.58-.59.22-1.24-.08-1.46-.67s.08-1.24.67-1.46c2.64-.98 5.12-.57 6.79 1.1s2.22 4.35 1.36 6.66c-.94 2.53-3.31 4.13-6.49 4.36h-.09Z" fill="#404040"/>
                <path d="M51.55 90.23c-.29 0-.59-.11-.81-.34-.44-.45-.43-1.17.02-1.6.58-.57 1.04-.98 1.48-1.38.5-.45.98-.88 1.61-1.52 1.13-1.15 1.31-3.08 1.34-3.85.02-.63.52-1.1 1.17-1.1.63.02 1.12.55 1.09 1.17-.04 1.3-.36 3.72-1.99 5.37-.68.69-1.2 1.16-1.71 1.61-.42.38-.86.77-1.41 1.31-.22.22-.51.32-.79.32Z" fill="#404040"/>
                <path d="M76.39 91.56c-.22 0-.45-.07-.65-.2l-.44-.31c-2.84-1.97-6.05-4.19-5.79-8.71.04-.62.58-1.1 1.2-1.07.63.04 1.1.57 1.07 1.2-.19 3.25 2.13 4.86 4.82 6.72l.45.31c.51.36.64 1.06.28 1.58-.22.32-.57.49-.93.49Z" fill="#404040"/>
                <path d="M95.09 128.08c-.43 0-.84-.24-1.03-.65-.41-.87-.93-3.66-1.82-8.51-.9-4.9-2.03-11-2.9-13.35-2.48-6.65-5.29-8.92-7.15-10.41-.34-.27-.65-.53-.93-.77-.47-.42-.51-1.13-.09-1.6s1.13-.51 1.6-.09c.25.22.53.45.84.7 2.05 1.65 5.16 4.15 7.86 11.39.94 2.53 2.04 8.48 3.01 13.73.63 3.43 1.35 7.31 1.65 7.96a1.14 1.14 0 0 1-1.03 1.62Z" fill="#404040"/>
                <path d="M63.7 67.78c-.84 0-1.77-.18-2.48-.77-.49-.41-1.04-1.18-.94-2.51.05-.62.6-1.09 1.22-1.04s1.09.6 1.04 1.22c-.04.44.1.55.14.59.34.29 1.32.32 2.28.07.61-.16 1.22.21 1.38.82.15.61-.21 1.22-.82 1.38-.4.1-1.08.24-1.83.24Z" fill="#404040"/>
                <path d="M56.7 56.52c-.11.9-.92 1.55-1.83 1.45-.9-.11-1.55-.92-1.44-1.83.11-.9.93-1.55 1.83-1.44s1.55.92 1.44 1.83Z" fill="#404040"/>
                <path d="M73.76 56.53c-.11.9-.92 1.55-1.83 1.45-.9-.11-1.55-.92-1.44-1.83.11-.9.93-1.55 1.83-1.45.91.11 1.55.93 1.44 1.83" fill="#404040"/>
                <path d="M63.52 98.83c-4.74 0-9.48-.98-13.76-2.95-.57-.26-.82-.94-.56-1.5.26-.57.94-.82 1.5-.56 8.42 3.88 18.77 3.64 27-.64.56-.29 1.24-.07 1.53.48.29.56.07 1.24-.48 1.53-4.66 2.42-9.95 3.64-15.24 3.64Z" fill="#404040"/>
                <path d="M46.84 77.7c-.24 0-.48-.08-.69-.23-5.28-4.05-9.05-10.11-10.34-16.63-1.08-5.47.42-14.5 3.22-19.32a1.13 1.13 0 0 1 1.55-.41c.54.31.73 1.01.41 1.55-2.53 4.35-3.94 12.81-2.96 17.74 1.19 5.99 4.65 11.56 9.5 15.28a1.132 1.132 0 0 1-.69 2.03Z" fill="#404040"/>
                <path d="M66.31 54.05c-.12 0-.25-.02-.37-.06-5.4-1.85-9.71-6.43-11.24-11.93-.17-.6.19-1.23.79-1.4.61-.17 1.23.19 1.4.79 1.33 4.8 5.08 8.78 9.79 10.39.59.2.91.85.7 1.44-.16.47-.6.77-1.07.77" fill="#404040"/>
                <path d="M80.56 56.44c-.41 0-.8-.22-1-.61-1.04-1.97-3.35-3.2-5.22-4.19-2.02-1.07-4.8-2.54-6.15-5.15-.29-.56-.07-1.24.48-1.53.56-.29 1.24-.07 1.53.48.95 1.83 2.92 2.98 5.21 4.19 2.14 1.13 4.8 2.54 6.16 5.13.29.55.08 1.24-.48 1.53-.17.09-.35.13-.53.13Z" fill="#404040"/>
                <path d="M45.03 55a1.134 1.134 0 0 1-.69-2.04c2.53-1.9 4.52-4.45 5.76-7.36.25-.58.91-.84 1.49-.6.58.25.84.91.6 1.49a20.4 20.4 0 0 1-5.74 7.7c-.12.29-.37.53-.69.64l-.38.12c-.12.04-.23.05-.35.05" fill="#404040"/>
                <path d="M31.54 127.98c-.08 0-.15 0-.23-.02-.61-.13-1.01-.73-.88-1.34.56-2.66 1.03-5.17 1.49-7.6.86-4.52 1.66-8.8 2.91-13.66 1.33-5.19 4.67-9.84 9.16-12.76a1.14 1.14 0 0 1 1.57.33c.34.52.19 1.23-.33 1.57-4.02 2.61-7.01 6.78-8.2 11.42-1.23 4.79-2.03 9.03-2.88 13.52-.46 2.44-.94 4.96-1.5 7.64-.11.53-.58.9-1.11.9" fill="#404040"/>
            </g>
            <path d="M29.7 10.68c9.52-6.05 20.82-9.55 32.93-9.55 33.97 0 61.5 27.53 61.5 61.5s-27.53 61.5-61.5 61.5-61.5-27.53-61.5-61.5c0-11.26 3.03-21.81 8.31-30.89" fill="none" stroke="#404040" stroke-linecap="round" stroke-miterlimit="10" stroke-width="2.26"/>
        </g>
    </g>
</svg>
